M48
; DRILL file {KiCad 9.0.2+dfsg-1} date 2026-03-25T20:53:57+0000
; FORMAT={-:-/ absolute / metric / decimal}
; #@! TF.CreationDate,2026-03-25T20:53:57+00:00
; #@! TF.GenerationSoftware,Kicad,Pcbnew,9.0.2+dfsg-1
; #@! TF.FileFunction,Plated,1,2,PTH
FMAT,2
METRIC
; #@! TA.AperFunction,Plated,PTH,ViaDrill
T1C0.300
; #@! TA.AperFunction,Plated,PTH,ComponentDrill
T2C0.787
; #@! TA.AperFunction,Plated,PTH,ComponentDrill
T3C0.800
; #@! TA.AperFunction,Plated,PTH,ComponentDrill
T4C0.850
; #@! TA.AperFunction,Plated,PTH,ComponentDrill
T5C0.900
; #@! TA.AperFunction,Plated,PTH,ComponentDrill
T6C1.000
%
G90
G05
T1
X213.5Y-62.5
X218.5Y-62.5
X221.5Y-59.5
X221.5Y-62.5
X224.0Y-91.0
X233.25Y-83.75
T2
X210.88Y-66.0
X210.88Y-68.54
X210.88Y-71.08
X210.88Y-73.62
X210.88Y-76.16
X210.88Y-78.7
X210.88Y-81.24
X210.88Y-83.78
X218.5Y-66.0
X218.5Y-68.54
X218.5Y-71.08
X218.5Y-73.62
X218.5Y-76.16
X218.5Y-78.7
X218.5Y-81.24
X218.5Y-83.78
T3
X201.19Y-100.5
X208.81Y-100.5
X227.0Y-100.5
X228.38Y-74.0
X228.38Y-81.62
X229.0Y-91.0
X230.92Y-74.0
X230.92Y-81.62
X231.0Y-91.0
X233.46Y-74.0
X233.46Y-81.62
X234.62Y-100.5
X236.0Y-74.0
X236.0Y-81.62
T4
X224.92Y-68.0
X227.46Y-68.0
X230.0Y-68.0
T5
X188.96Y-91.0
X189.96Y-84.0
X191.5Y-91.0
X191.96Y-75.5
X192.5Y-84.0
X194.5Y-75.5
X198.0Y-66.5
X200.54Y-66.5
X208.96Y-60.5
X211.5Y-60.5
X223.46Y-60.0
X226.0Y-60.0
X234.5Y-65.0
X237.04Y-65.0
X240.46Y-73.0
X242.46Y-81.5
X243.0Y-73.0
X243.96Y-90.0
X245.0Y-81.5
X246.5Y-90.0
T6
X216.0Y-60.0
X216.5Y-93.5
X218.54Y-60.0
X221.5Y-93.5
X238.5Y-92.0
M30
