%TF.GenerationSoftware,KiCad,Pcbnew,9.0.2+dfsg-1*%
%TF.CreationDate,2026-03-25T20:53:55+00:00*%
%TF.ProjectId,555 Star Wars Blinky,35353520-5374-4617-9220-576172732042,rev?*%
%TF.SameCoordinates,Original*%
%TF.FileFunction,Copper,L2,Bot*%
%TF.FilePolarity,Positive*%
%FSLAX46Y46*%
G04 Gerber Fmt 4.6, Leading zero omitted, Abs format (unit mm)*
G04 Created by KiCad (PCBNEW 9.0.2+dfsg-1) date 2026-03-25 20:53:55*
%MOMM*%
%LPD*%
G01*
G04 APERTURE LIST*
G04 Aperture macros list*
%AMRoundRect*
0 Rectangle with rounded corners*
0 $1 Rounding radius*
0 $2 $3 $4 $5 $6 $7 $8 $9 X,Y pos of 4 corners*
0 Add a 4 corners polygon primitive as box body*
4,1,4,$2,$3,$4,$5,$6,$7,$8,$9,$2,$3,0*
0 Add four circle primitives for the rounded corners*
1,1,$1+$1,$2,$3*
1,1,$1+$1,$4,$5*
1,1,$1+$1,$6,$7*
1,1,$1+$1,$8,$9*
0 Add four rect primitives between the rounded corners*
20,1,$1+$1,$2,$3,$4,$5,0*
20,1,$1+$1,$4,$5,$6,$7,0*
20,1,$1+$1,$6,$7,$8,$9,0*
20,1,$1+$1,$8,$9,$2,$3,0*%
G04 Aperture macros list end*
%TA.AperFunction,ComponentPad*%
%ADD10R,1.800000X1.800000*%
%TD*%
%TA.AperFunction,ComponentPad*%
%ADD11C,1.800000*%
%TD*%
%TA.AperFunction,ComponentPad*%
%ADD12C,1.600000*%
%TD*%
%TA.AperFunction,ComponentPad*%
%ADD13C,2.000000*%
%TD*%
%TA.AperFunction,ComponentPad*%
%ADD14R,1.700000X1.700000*%
%TD*%
%TA.AperFunction,ComponentPad*%
%ADD15C,1.700000*%
%TD*%
%TA.AperFunction,ComponentPad*%
%ADD16RoundRect,0.250000X0.550000X0.550000X-0.550000X0.550000X-0.550000X-0.550000X0.550000X-0.550000X0*%
%TD*%
%TA.AperFunction,ComponentPad*%
%ADD17RoundRect,0.250000X0.550000X-0.550000X0.550000X0.550000X-0.550000X0.550000X-0.550000X-0.550000X0*%
%TD*%
%TA.AperFunction,ComponentPad*%
%ADD18RoundRect,0.412500X-0.412500X-0.412500X0.412500X-0.412500X0.412500X0.412500X-0.412500X0.412500X0*%
%TD*%
%TA.AperFunction,ComponentPad*%
%ADD19C,1.650000*%
%TD*%
%TA.AperFunction,ComponentPad*%
%ADD20R,1.295400X1.295400*%
%TD*%
%TA.AperFunction,ComponentPad*%
%ADD21C,1.295400*%
%TD*%
%TA.AperFunction,ViaPad*%
%ADD22C,0.600000*%
%TD*%
%TA.AperFunction,Conductor*%
%ADD23C,0.200000*%
%TD*%
G04 APERTURE END LIST*
D10*
%TO.P,D6,1,K*%
%TO.N,Net-(D1-K)*%
X198000000Y-66500000D03*
D11*
%TO.P,D6,2,A*%
%TO.N,Net-(D6-A)*%
X200540000Y-66500000D03*
%TD*%
D12*
%TO.P,R2,1*%
%TO.N,Net-(D1-K)*%
X201190000Y-100500000D03*
%TO.P,R2,2*%
%TO.N,GND*%
X208810000Y-100500000D03*
%TD*%
D13*
%TO.P,C2,1*%
%TO.N,Net-(U1-CV)*%
X221500000Y-93500000D03*
%TO.P,C2,2*%
%TO.N,GND*%
X216500000Y-93500000D03*
%TD*%
D10*
%TO.P,D4,1,K*%
%TO.N,Net-(D1-K)*%
X242460000Y-81500000D03*
D11*
%TO.P,D4,2,A*%
%TO.N,Net-(D4-A)*%
X245000000Y-81500000D03*
%TD*%
D12*
%TO.P,R1,1*%
%TO.N,+5V*%
X234620000Y-100500000D03*
%TO.P,R1,2*%
%TO.N,Net-(U1-DIS)*%
X227000000Y-100500000D03*
%TD*%
D10*
%TO.P,D3,1,K*%
%TO.N,Net-(D1-K)*%
X234500000Y-65000000D03*
D11*
%TO.P,D3,2,A*%
%TO.N,Net-(D3-A)*%
X237040000Y-65000000D03*
%TD*%
D14*
%TO.P,J1,1,Pin_1*%
%TO.N,+5V*%
X216000000Y-60000000D03*
D15*
%TO.P,J1,2,Pin_2*%
%TO.N,GND*%
X218540000Y-60000000D03*
%TD*%
D10*
%TO.P,D7,1,K*%
%TO.N,Net-(D1-K)*%
X208960000Y-60500000D03*
D11*
%TO.P,D7,2,A*%
%TO.N,Net-(D7-A)*%
X211500000Y-60500000D03*
%TD*%
D10*
%TO.P,D9,1,K*%
%TO.N,Net-(D1-K)*%
X240460000Y-73000000D03*
D11*
%TO.P,D9,2,A*%
%TO.N,Net-(D9-A)*%
X243000000Y-73000000D03*
%TD*%
D10*
%TO.P,D5,1,K*%
%TO.N,Net-(D1-K)*%
X188960000Y-91000000D03*
D11*
%TO.P,D5,2,A*%
%TO.N,Net-(D5-A)*%
X191500000Y-91000000D03*
%TD*%
D10*
%TO.P,D8,1,K*%
%TO.N,Net-(D1-K)*%
X223460000Y-60000000D03*
D11*
%TO.P,D8,2,A*%
%TO.N,Net-(D8-A)*%
X226000000Y-60000000D03*
%TD*%
D14*
%TO.P,J2,1,Pin_1*%
%TO.N,OUT*%
X238500000Y-92000000D03*
%TD*%
D10*
%TO.P,D1,1,K*%
%TO.N,Net-(D1-K)*%
X191960000Y-75500000D03*
D11*
%TO.P,D1,2,A*%
%TO.N,Net-(D1-A)*%
X194500000Y-75500000D03*
%TD*%
D10*
%TO.P,D2,1,K*%
%TO.N,Net-(D1-K)*%
X189960000Y-84000000D03*
D11*
%TO.P,D2,2,A*%
%TO.N,Net-(D2-A)*%
X192500000Y-84000000D03*
%TD*%
D16*
%TO.P,C1,1*%
%TO.N,TR*%
X231000000Y-91000000D03*
D12*
%TO.P,C1,2*%
%TO.N,GND*%
X229000000Y-91000000D03*
%TD*%
D17*
%TO.P,U1,1,GND*%
%TO.N,GND*%
X228380000Y-81620000D03*
D12*
%TO.P,U1,2,TR*%
%TO.N,TR*%
X230920000Y-81620000D03*
%TO.P,U1,3,Q*%
%TO.N,OUT*%
X233460000Y-81620000D03*
%TO.P,U1,4,R*%
%TO.N,+5V*%
X236000000Y-81620000D03*
%TO.P,U1,5,CV*%
%TO.N,Net-(U1-CV)*%
X236000000Y-74000000D03*
%TO.P,U1,6,THR*%
%TO.N,TR*%
X233460000Y-74000000D03*
%TO.P,U1,7,DIS*%
%TO.N,Net-(U1-DIS)*%
X230920000Y-74000000D03*
%TO.P,U1,8,VCC*%
%TO.N,+5V*%
X228380000Y-74000000D03*
%TD*%
D18*
%TO.P,RV1,1,1*%
%TO.N,Net-(U1-DIS)*%
X224920000Y-68000000D03*
D19*
%TO.P,RV1,2,2*%
X227460000Y-68000000D03*
%TO.P,RV1,3,3*%
%TO.N,TR*%
X230000000Y-68000000D03*
%TD*%
D20*
%TO.P,U2,1,Q5*%
%TO.N,Net-(D6-A)*%
X210880000Y-66000000D03*
D21*
%TO.P,U2,2,Q1*%
%TO.N,Net-(D2-A)*%
X210880000Y-68540000D03*
%TO.P,U2,3,Q0*%
%TO.N,Net-(D1-A)*%
X210880000Y-71080000D03*
%TO.P,U2,4,Q2*%
%TO.N,Net-(D3-A)*%
X210880000Y-73620000D03*
%TO.P,U2,5,Q6*%
%TO.N,Net-(D7-A)*%
X210880000Y-76160000D03*
%TO.P,U2,6,Q7*%
%TO.N,Net-(D8-A)*%
X210880000Y-78700000D03*
%TO.P,U2,7,Q3*%
%TO.N,Net-(D4-A)*%
X210880000Y-81240000D03*
%TO.P,U2,8,VSS*%
%TO.N,GND*%
X210880000Y-83780000D03*
%TO.P,U2,9,Q8*%
%TO.N,Net-(D9-A)*%
X218500000Y-83780000D03*
%TO.P,U2,10,Q4*%
%TO.N,Net-(D5-A)*%
X218500000Y-81240000D03*
%TO.P,U2,11,Q9*%
%TO.N,Net-(D10-A)*%
X218500000Y-78700000D03*
%TO.P,U2,12,Cout*%
%TO.N,unconnected-(U2-Cout-Pad12)*%
X218500000Y-76160000D03*
%TO.P,U2,13,CKEN*%
%TO.N,GND*%
X218500000Y-73620000D03*
%TO.P,U2,14,CLK*%
%TO.N,OUT*%
X218500000Y-71080000D03*
%TO.P,U2,15,Reset*%
%TO.N,GND*%
X218500000Y-68540000D03*
%TO.P,U2,16,VDD*%
%TO.N,+5V*%
X218500000Y-66000000D03*
%TD*%
D10*
%TO.P,D10,1,K*%
%TO.N,Net-(D1-K)*%
X243960000Y-90000000D03*
D11*
%TO.P,D10,2,A*%
%TO.N,Net-(D10-A)*%
X246500000Y-90000000D03*
%TD*%
D22*
%TO.N,GND*%
X224000000Y-91000000D03*
%TO.N,Net-(D7-A)*%
X213500000Y-62500000D03*
%TO.N,GND*%
X218500000Y-62500000D03*
%TO.N,TR*%
X233250000Y-83750000D03*
%TO.N,+5V*%
X221500000Y-59500000D03*
X221500000Y-62500000D03*
%TD*%
D23*
%TO.N,Net-(D7-A)*%
X213500000Y-62500000D02*
X211500000Y-60500000D01*
%TO.N,GND*%
X218540000Y-62460000D02*
X218540000Y-60000000D01*
X218500000Y-62500000D02*
X218540000Y-62460000D01*
X216500000Y-93500000D02*
X209500000Y-100500000D01*
X228380000Y-90380000D02*
X229000000Y-91000000D01*
X229000000Y-91000000D02*
X224000000Y-91000000D01*
X209500000Y-100500000D02*
X208810000Y-100500000D01*
X228380000Y-81620000D02*
X228380000Y-90380000D01*
%TO.N,TR*%
X233460000Y-74000000D02*
X234561000Y-75101000D01*
X234561000Y-75101000D02*
X234561000Y-82439000D01*
X234561000Y-82439000D02*
X233250000Y-83750000D01*
%TO.N,Net-(U1-CV)*%
X221500000Y-93500000D02*
X221099000Y-93099000D01*
X230463950Y-72899000D02*
X234899000Y-72899000D01*
X221099000Y-83176050D02*
X229819000Y-74456050D01*
X234899000Y-72899000D02*
X236000000Y-74000000D01*
X229819000Y-74456050D02*
X229819000Y-73543950D01*
X221099000Y-93099000D02*
X221099000Y-83176050D01*
X229819000Y-73543950D02*
X230463950Y-72899000D01*
%TO.N,Net-(D1-A)*%
X194500000Y-75500000D02*
X206460000Y-75500000D01*
X206460000Y-75500000D02*
X210880000Y-71080000D01*
%TO.N,Net-(D1-K)*%
X201190000Y-100500000D02*
X198460000Y-100500000D01*
X198460000Y-100500000D02*
X188960000Y-91000000D01*
%TO.N,Net-(D3-A)*%
X218412240Y-58500000D02*
X217151000Y-59761240D01*
X217151000Y-59761240D02*
X217151000Y-67349000D01*
X217151000Y-67349000D02*
X210880000Y-73620000D01*
X237040000Y-65000000D02*
X230540000Y-58500000D01*
X230540000Y-58500000D02*
X218412240Y-58500000D01*
%TO.N,Net-(D4-A)*%
X224535900Y-72097000D02*
X236221150Y-72097000D01*
X236221150Y-72097000D02*
X245000000Y-80875850D01*
X214368700Y-77751300D02*
X218881600Y-77751300D01*
X245000000Y-80875850D02*
X245000000Y-81500000D01*
X210880000Y-81240000D02*
X214368700Y-77751300D01*
X218881600Y-77751300D02*
X224535900Y-72097000D01*
%TO.N,Net-(D6-A)*%
X200540000Y-66500000D02*
X210380000Y-66500000D01*
X210380000Y-66500000D02*
X210880000Y-66000000D01*
%TO.N,Net-(D8-A)*%
X218738335Y-69488700D02*
X218892965Y-69488700D01*
X210880000Y-78700000D02*
X217551300Y-72028700D01*
X217551300Y-70675735D02*
X218738335Y-69488700D01*
X226000000Y-62381665D02*
X226000000Y-60000000D01*
X217551300Y-72028700D02*
X217551300Y-70675735D01*
X218892965Y-69488700D02*
X226000000Y-62381665D01*
%TO.N,Net-(D9-A)*%
X210487035Y-80291300D02*
X209931300Y-80847035D01*
X243000000Y-73000000D02*
X241696000Y-71696000D01*
X211261600Y-80291300D02*
X210487035Y-80291300D01*
X217551300Y-82831300D02*
X218500000Y-83780000D01*
X214202600Y-77350300D02*
X211261600Y-80291300D01*
X241696000Y-71696000D02*
X224369800Y-71696000D01*
X209931300Y-80847035D02*
X209931300Y-81632965D01*
X224369800Y-71696000D02*
X218715500Y-77350300D01*
X218715500Y-77350300D02*
X214202600Y-77350300D01*
X211129635Y-82831300D02*
X217551300Y-82831300D01*
X209931300Y-81632965D02*
X211129635Y-82831300D01*
%TO.N,Net-(D10-A)*%
X218500000Y-78700000D02*
X224702000Y-72498000D01*
X236055050Y-72498000D02*
X243661000Y-80103950D01*
X224702000Y-72498000D02*
X236055050Y-72498000D01*
X243661000Y-87161000D02*
X246500000Y-90000000D01*
X243661000Y-80103950D02*
X243661000Y-87161000D01*
%TO.N,+5V*%
X236000000Y-99120000D02*
X234620000Y-100500000D01*
X221500000Y-62500000D02*
X221500000Y-59500000D01*
X236000000Y-81620000D02*
X236000000Y-99120000D01*
%TO.N,Net-(U1-DIS)*%
X232101000Y-75181000D02*
X230920000Y-74000000D01*
X227000000Y-100500000D02*
X232101000Y-95399000D01*
X232101000Y-95399000D02*
X232101000Y-75181000D01*
%TD*%
M02*
