%TF.GenerationSoftware,KiCad,Pcbnew,9.0.2+dfsg-1*%
%TF.CreationDate,2026-03-25T20:53:55+00:00*%
%TF.ProjectId,555 Star Wars Blinky,35353520-5374-4617-9220-576172732042,rev?*%
%TF.SameCoordinates,Original*%
%TF.FileFunction,Soldermask,Top*%
%TF.FilePolarity,Negative*%
%FSLAX46Y46*%
G04 Gerber Fmt 4.6, Leading zero omitted, Abs format (unit mm)*
G04 Created by KiCad (PCBNEW 9.0.2+dfsg-1) date 2026-03-25 20:53:55*
%MOMM*%
%LPD*%
G01*
G04 APERTURE LIST*
G04 Aperture macros list*
%AMRoundRect*
0 Rectangle with rounded corners*
0 $1 Rounding radius*
0 $2 $3 $4 $5 $6 $7 $8 $9 X,Y pos of 4 corners*
0 Add a 4 corners polygon primitive as box body*
4,1,4,$2,$3,$4,$5,$6,$7,$8,$9,$2,$3,0*
0 Add four circle primitives for the rounded corners*
1,1,$1+$1,$2,$3*
1,1,$1+$1,$4,$5*
1,1,$1+$1,$6,$7*
1,1,$1+$1,$8,$9*
0 Add four rect primitives between the rounded corners*
20,1,$1+$1,$2,$3,$4,$5,0*
20,1,$1+$1,$4,$5,$6,$7,0*
20,1,$1+$1,$6,$7,$8,$9,0*
20,1,$1+$1,$8,$9,$2,$3,0*%
G04 Aperture macros list end*
%ADD10R,1.800000X1.800000*%
%ADD11C,1.800000*%
%ADD12C,1.600000*%
%ADD13C,2.000000*%
%ADD14R,1.700000X1.700000*%
%ADD15C,1.700000*%
%ADD16RoundRect,0.250000X0.550000X0.550000X-0.550000X0.550000X-0.550000X-0.550000X0.550000X-0.550000X0*%
%ADD17RoundRect,0.250000X0.550000X-0.550000X0.550000X0.550000X-0.550000X0.550000X-0.550000X-0.550000X0*%
%ADD18RoundRect,0.412500X-0.412500X-0.412500X0.412500X-0.412500X0.412500X0.412500X-0.412500X0.412500X0*%
%ADD19C,1.650000*%
%ADD20R,1.295400X1.295400*%
%ADD21C,1.295400*%
G04 APERTURE END LIST*
D10*
%TO.C,D6*%
X198000000Y-66500000D03*
D11*
X200540000Y-66500000D03*
%TD*%
D12*
%TO.C,R2*%
X201190000Y-100500000D03*
X208810000Y-100500000D03*
%TD*%
D13*
%TO.C,C2*%
X221500000Y-93500000D03*
X216500000Y-93500000D03*
%TD*%
D10*
%TO.C,D4*%
X242460000Y-81500000D03*
D11*
X245000000Y-81500000D03*
%TD*%
D12*
%TO.C,R1*%
X234620000Y-100500000D03*
X227000000Y-100500000D03*
%TD*%
D10*
%TO.C,D3*%
X234500000Y-65000000D03*
D11*
X237040000Y-65000000D03*
%TD*%
D14*
%TO.C,J1*%
X216000000Y-60000000D03*
D15*
X218540000Y-60000000D03*
%TD*%
D10*
%TO.C,D7*%
X208960000Y-60500000D03*
D11*
X211500000Y-60500000D03*
%TD*%
D10*
%TO.C,D9*%
X240460000Y-73000000D03*
D11*
X243000000Y-73000000D03*
%TD*%
D10*
%TO.C,D5*%
X188960000Y-91000000D03*
D11*
X191500000Y-91000000D03*
%TD*%
D10*
%TO.C,D8*%
X223460000Y-60000000D03*
D11*
X226000000Y-60000000D03*
%TD*%
D14*
%TO.C,J2*%
X238500000Y-92000000D03*
%TD*%
D10*
%TO.C,D1*%
X191960000Y-75500000D03*
D11*
X194500000Y-75500000D03*
%TD*%
D10*
%TO.C,D2*%
X189960000Y-84000000D03*
D11*
X192500000Y-84000000D03*
%TD*%
D16*
%TO.C,C1*%
X231000000Y-91000000D03*
D12*
X229000000Y-91000000D03*
%TD*%
D17*
%TO.C,U1*%
X228380000Y-81620000D03*
D12*
X230920000Y-81620000D03*
X233460000Y-81620000D03*
X236000000Y-81620000D03*
X236000000Y-74000000D03*
X233460000Y-74000000D03*
X230920000Y-74000000D03*
X228380000Y-74000000D03*
%TD*%
D18*
%TO.C,RV1*%
X224920000Y-68000000D03*
D19*
X227460000Y-68000000D03*
X230000000Y-68000000D03*
%TD*%
D20*
%TO.C,U2*%
X210880000Y-66000000D03*
D21*
X210880000Y-68540000D03*
X210880000Y-71080000D03*
X210880000Y-73620000D03*
X210880000Y-76160000D03*
X210880000Y-78700000D03*
X210880000Y-81240000D03*
X210880000Y-83780000D03*
X218500000Y-83780000D03*
X218500000Y-81240000D03*
X218500000Y-78700000D03*
X218500000Y-76160000D03*
X218500000Y-73620000D03*
X218500000Y-71080000D03*
X218500000Y-68540000D03*
X218500000Y-66000000D03*
%TD*%
D10*
%TO.C,D10*%
X243960000Y-90000000D03*
D11*
X246500000Y-90000000D03*
%TD*%
M02*
