%TF.GenerationSoftware,KiCad,Pcbnew,9.0.2+dfsg-1*%
%TF.CreationDate,2026-03-25T20:53:55+00:00*%
%TF.ProjectId,555 Star Wars Blinky,35353520-5374-4617-9220-576172732042,rev?*%
%TF.SameCoordinates,Original*%
%TF.FileFunction,Legend,Top*%
%TF.FilePolarity,Positive*%
%FSLAX46Y46*%
G04 Gerber Fmt 4.6, Leading zero omitted, Abs format (unit mm)*
G04 Created by KiCad (PCBNEW 9.0.2+dfsg-1) date 2026-03-25 20:53:55*
%MOMM*%
%LPD*%
G01*
G04 APERTURE LIST*
%ADD10C,0.300000*%
%ADD11C,0.150000*%
%ADD12C,0.120000*%
%ADD13C,0.000000*%
%ADD14C,0.152400*%
G04 APERTURE END LIST*
D10*
X239495939Y-59170828D02*
X240210225Y-60670828D01*
X240210225Y-60670828D02*
X240781653Y-59599400D01*
X240781653Y-59599400D02*
X241353082Y-60670828D01*
X241353082Y-60670828D02*
X242067368Y-59170828D01*
X244495939Y-60670828D02*
X244495939Y-59885114D01*
X244495939Y-59885114D02*
X244353081Y-59742257D01*
X244353081Y-59742257D02*
X244067367Y-59670828D01*
X244067367Y-59670828D02*
X243495939Y-59670828D01*
X243495939Y-59670828D02*
X243210224Y-59742257D01*
X244495939Y-60599400D02*
X244210224Y-60670828D01*
X244210224Y-60670828D02*
X243495939Y-60670828D01*
X243495939Y-60670828D02*
X243210224Y-60599400D01*
X243210224Y-60599400D02*
X243067367Y-60456542D01*
X243067367Y-60456542D02*
X243067367Y-60313685D01*
X243067367Y-60313685D02*
X243210224Y-60170828D01*
X243210224Y-60170828D02*
X243495939Y-60099400D01*
X243495939Y-60099400D02*
X244210224Y-60099400D01*
X244210224Y-60099400D02*
X244495939Y-60027971D01*
X245924510Y-60670828D02*
X245924510Y-59670828D01*
X245924510Y-59956542D02*
X246067367Y-59813685D01*
X246067367Y-59813685D02*
X246210225Y-59742257D01*
X246210225Y-59742257D02*
X246495939Y-59670828D01*
X246495939Y-59670828D02*
X246781653Y-59670828D01*
X247638796Y-60599400D02*
X247924510Y-60670828D01*
X247924510Y-60670828D02*
X248495939Y-60670828D01*
X248495939Y-60670828D02*
X248781653Y-60599400D01*
X248781653Y-60599400D02*
X248924510Y-60456542D01*
X248924510Y-60456542D02*
X248924510Y-60385114D01*
X248924510Y-60385114D02*
X248781653Y-60242257D01*
X248781653Y-60242257D02*
X248495939Y-60170828D01*
X248495939Y-60170828D02*
X248067368Y-60170828D01*
X248067368Y-60170828D02*
X247781653Y-60099400D01*
X247781653Y-60099400D02*
X247638796Y-59956542D01*
X247638796Y-59956542D02*
X247638796Y-59885114D01*
X247638796Y-59885114D02*
X247781653Y-59742257D01*
X247781653Y-59742257D02*
X248067368Y-59670828D01*
X248067368Y-59670828D02*
X248495939Y-59670828D01*
X248495939Y-59670828D02*
X248781653Y-59742257D01*
X188839272Y-60979400D02*
X189410701Y-61050828D01*
X189410701Y-61050828D02*
X190363082Y-61050828D01*
X190363082Y-61050828D02*
X190744034Y-60979400D01*
X190744034Y-60979400D02*
X190934510Y-60907971D01*
X190934510Y-60907971D02*
X191124987Y-60765114D01*
X191124987Y-60765114D02*
X191124987Y-60622257D01*
X191124987Y-60622257D02*
X190934510Y-60479400D01*
X190934510Y-60479400D02*
X190744034Y-60407971D01*
X190744034Y-60407971D02*
X190363082Y-60336542D01*
X190363082Y-60336542D02*
X189601177Y-60265114D01*
X189601177Y-60265114D02*
X189220225Y-60193685D01*
X189220225Y-60193685D02*
X189029748Y-60122257D01*
X189029748Y-60122257D02*
X188839272Y-59979400D01*
X188839272Y-59979400D02*
X188839272Y-59836542D01*
X188839272Y-59836542D02*
X189029748Y-59693685D01*
X189029748Y-59693685D02*
X189220225Y-59622257D01*
X189220225Y-59622257D02*
X189601177Y-59550828D01*
X189601177Y-59550828D02*
X190553558Y-59550828D01*
X190553558Y-59550828D02*
X191124987Y-59622257D01*
X192267844Y-60050828D02*
X193791653Y-60050828D01*
X192839272Y-59550828D02*
X192839272Y-60836542D01*
X192839272Y-60836542D02*
X193029749Y-60979400D01*
X193029749Y-60979400D02*
X193410701Y-61050828D01*
X193410701Y-61050828D02*
X193791653Y-61050828D01*
X196839272Y-61050828D02*
X196839272Y-60265114D01*
X196839272Y-60265114D02*
X196648796Y-60122257D01*
X196648796Y-60122257D02*
X196267844Y-60050828D01*
X196267844Y-60050828D02*
X195505939Y-60050828D01*
X195505939Y-60050828D02*
X195124986Y-60122257D01*
X196839272Y-60979400D02*
X196458320Y-61050828D01*
X196458320Y-61050828D02*
X195505939Y-61050828D01*
X195505939Y-61050828D02*
X195124986Y-60979400D01*
X195124986Y-60979400D02*
X194934510Y-60836542D01*
X194934510Y-60836542D02*
X194934510Y-60693685D01*
X194934510Y-60693685D02*
X195124986Y-60550828D01*
X195124986Y-60550828D02*
X195505939Y-60479400D01*
X195505939Y-60479400D02*
X196458320Y-60479400D01*
X196458320Y-60479400D02*
X196839272Y-60407971D01*
X198744034Y-61050828D02*
X198744034Y-60050828D01*
X198744034Y-60336542D02*
X198934511Y-60193685D01*
X198934511Y-60193685D02*
X199124987Y-60122257D01*
X199124987Y-60122257D02*
X199505939Y-60050828D01*
X199505939Y-60050828D02*
X199886892Y-60050828D01*
D11*
X198531905Y-63994819D02*
X198531905Y-62994819D01*
X198531905Y-62994819D02*
X198770000Y-62994819D01*
X198770000Y-62994819D02*
X198912857Y-63042438D01*
X198912857Y-63042438D02*
X199008095Y-63137676D01*
X199008095Y-63137676D02*
X199055714Y-63232914D01*
X199055714Y-63232914D02*
X199103333Y-63423390D01*
X199103333Y-63423390D02*
X199103333Y-63566247D01*
X199103333Y-63566247D02*
X199055714Y-63756723D01*
X199055714Y-63756723D02*
X199008095Y-63851961D01*
X199008095Y-63851961D02*
X198912857Y-63947200D01*
X198912857Y-63947200D02*
X198770000Y-63994819D01*
X198770000Y-63994819D02*
X198531905Y-63994819D01*
X199960476Y-62994819D02*
X199770000Y-62994819D01*
X199770000Y-62994819D02*
X199674762Y-63042438D01*
X199674762Y-63042438D02*
X199627143Y-63090057D01*
X199627143Y-63090057D02*
X199531905Y-63232914D01*
X199531905Y-63232914D02*
X199484286Y-63423390D01*
X199484286Y-63423390D02*
X199484286Y-63804342D01*
X199484286Y-63804342D02*
X199531905Y-63899580D01*
X199531905Y-63899580D02*
X199579524Y-63947200D01*
X199579524Y-63947200D02*
X199674762Y-63994819D01*
X199674762Y-63994819D02*
X199865238Y-63994819D01*
X199865238Y-63994819D02*
X199960476Y-63947200D01*
X199960476Y-63947200D02*
X200008095Y-63899580D01*
X200008095Y-63899580D02*
X200055714Y-63804342D01*
X200055714Y-63804342D02*
X200055714Y-63566247D01*
X200055714Y-63566247D02*
X200008095Y-63471009D01*
X200008095Y-63471009D02*
X199960476Y-63423390D01*
X199960476Y-63423390D02*
X199865238Y-63375771D01*
X199865238Y-63375771D02*
X199674762Y-63375771D01*
X199674762Y-63375771D02*
X199579524Y-63423390D01*
X199579524Y-63423390D02*
X199531905Y-63471009D01*
X199531905Y-63471009D02*
X199484286Y-63566247D01*
X204833333Y-98584819D02*
X204500000Y-98108628D01*
X204261905Y-98584819D02*
X204261905Y-97584819D01*
X204261905Y-97584819D02*
X204642857Y-97584819D01*
X204642857Y-97584819D02*
X204738095Y-97632438D01*
X204738095Y-97632438D02*
X204785714Y-97680057D01*
X204785714Y-97680057D02*
X204833333Y-97775295D01*
X204833333Y-97775295D02*
X204833333Y-97918152D01*
X204833333Y-97918152D02*
X204785714Y-98013390D01*
X204785714Y-98013390D02*
X204738095Y-98061009D01*
X204738095Y-98061009D02*
X204642857Y-98108628D01*
X204642857Y-98108628D02*
X204261905Y-98108628D01*
X205214286Y-97680057D02*
X205261905Y-97632438D01*
X205261905Y-97632438D02*
X205357143Y-97584819D01*
X205357143Y-97584819D02*
X205595238Y-97584819D01*
X205595238Y-97584819D02*
X205690476Y-97632438D01*
X205690476Y-97632438D02*
X205738095Y-97680057D01*
X205738095Y-97680057D02*
X205785714Y-97775295D01*
X205785714Y-97775295D02*
X205785714Y-97870533D01*
X205785714Y-97870533D02*
X205738095Y-98013390D01*
X205738095Y-98013390D02*
X205166667Y-98584819D01*
X205166667Y-98584819D02*
X205785714Y-98584819D01*
X218833333Y-96359580D02*
X218785714Y-96407200D01*
X218785714Y-96407200D02*
X218642857Y-96454819D01*
X218642857Y-96454819D02*
X218547619Y-96454819D01*
X218547619Y-96454819D02*
X218404762Y-96407200D01*
X218404762Y-96407200D02*
X218309524Y-96311961D01*
X218309524Y-96311961D02*
X218261905Y-96216723D01*
X218261905Y-96216723D02*
X218214286Y-96026247D01*
X218214286Y-96026247D02*
X218214286Y-95883390D01*
X218214286Y-95883390D02*
X218261905Y-95692914D01*
X218261905Y-95692914D02*
X218309524Y-95597676D01*
X218309524Y-95597676D02*
X218404762Y-95502438D01*
X218404762Y-95502438D02*
X218547619Y-95454819D01*
X218547619Y-95454819D02*
X218642857Y-95454819D01*
X218642857Y-95454819D02*
X218785714Y-95502438D01*
X218785714Y-95502438D02*
X218833333Y-95550057D01*
X219214286Y-95550057D02*
X219261905Y-95502438D01*
X219261905Y-95502438D02*
X219357143Y-95454819D01*
X219357143Y-95454819D02*
X219595238Y-95454819D01*
X219595238Y-95454819D02*
X219690476Y-95502438D01*
X219690476Y-95502438D02*
X219738095Y-95550057D01*
X219738095Y-95550057D02*
X219785714Y-95645295D01*
X219785714Y-95645295D02*
X219785714Y-95740533D01*
X219785714Y-95740533D02*
X219738095Y-95883390D01*
X219738095Y-95883390D02*
X219166667Y-96454819D01*
X219166667Y-96454819D02*
X219785714Y-96454819D01*
X242991905Y-78994819D02*
X242991905Y-77994819D01*
X242991905Y-77994819D02*
X243230000Y-77994819D01*
X243230000Y-77994819D02*
X243372857Y-78042438D01*
X243372857Y-78042438D02*
X243468095Y-78137676D01*
X243468095Y-78137676D02*
X243515714Y-78232914D01*
X243515714Y-78232914D02*
X243563333Y-78423390D01*
X243563333Y-78423390D02*
X243563333Y-78566247D01*
X243563333Y-78566247D02*
X243515714Y-78756723D01*
X243515714Y-78756723D02*
X243468095Y-78851961D01*
X243468095Y-78851961D02*
X243372857Y-78947200D01*
X243372857Y-78947200D02*
X243230000Y-78994819D01*
X243230000Y-78994819D02*
X242991905Y-78994819D01*
X244420476Y-78328152D02*
X244420476Y-78994819D01*
X244182381Y-77947200D02*
X243944286Y-78661485D01*
X243944286Y-78661485D02*
X244563333Y-78661485D01*
X230643333Y-103324819D02*
X230310000Y-102848628D01*
X230071905Y-103324819D02*
X230071905Y-102324819D01*
X230071905Y-102324819D02*
X230452857Y-102324819D01*
X230452857Y-102324819D02*
X230548095Y-102372438D01*
X230548095Y-102372438D02*
X230595714Y-102420057D01*
X230595714Y-102420057D02*
X230643333Y-102515295D01*
X230643333Y-102515295D02*
X230643333Y-102658152D01*
X230643333Y-102658152D02*
X230595714Y-102753390D01*
X230595714Y-102753390D02*
X230548095Y-102801009D01*
X230548095Y-102801009D02*
X230452857Y-102848628D01*
X230452857Y-102848628D02*
X230071905Y-102848628D01*
X231595714Y-103324819D02*
X231024286Y-103324819D01*
X231310000Y-103324819D02*
X231310000Y-102324819D01*
X231310000Y-102324819D02*
X231214762Y-102467676D01*
X231214762Y-102467676D02*
X231119524Y-102562914D01*
X231119524Y-102562914D02*
X231024286Y-102610533D01*
X235031905Y-62494819D02*
X235031905Y-61494819D01*
X235031905Y-61494819D02*
X235270000Y-61494819D01*
X235270000Y-61494819D02*
X235412857Y-61542438D01*
X235412857Y-61542438D02*
X235508095Y-61637676D01*
X235508095Y-61637676D02*
X235555714Y-61732914D01*
X235555714Y-61732914D02*
X235603333Y-61923390D01*
X235603333Y-61923390D02*
X235603333Y-62066247D01*
X235603333Y-62066247D02*
X235555714Y-62256723D01*
X235555714Y-62256723D02*
X235508095Y-62351961D01*
X235508095Y-62351961D02*
X235412857Y-62447200D01*
X235412857Y-62447200D02*
X235270000Y-62494819D01*
X235270000Y-62494819D02*
X235031905Y-62494819D01*
X235936667Y-61494819D02*
X236555714Y-61494819D01*
X236555714Y-61494819D02*
X236222381Y-61875771D01*
X236222381Y-61875771D02*
X236365238Y-61875771D01*
X236365238Y-61875771D02*
X236460476Y-61923390D01*
X236460476Y-61923390D02*
X236508095Y-61971009D01*
X236508095Y-61971009D02*
X236555714Y-62066247D01*
X236555714Y-62066247D02*
X236555714Y-62304342D01*
X236555714Y-62304342D02*
X236508095Y-62399580D01*
X236508095Y-62399580D02*
X236460476Y-62447200D01*
X236460476Y-62447200D02*
X236365238Y-62494819D01*
X236365238Y-62494819D02*
X236079524Y-62494819D01*
X236079524Y-62494819D02*
X235984286Y-62447200D01*
X235984286Y-62447200D02*
X235936667Y-62399580D01*
X213074819Y-60333333D02*
X213789104Y-60333333D01*
X213789104Y-60333333D02*
X213931961Y-60380952D01*
X213931961Y-60380952D02*
X214027200Y-60476190D01*
X214027200Y-60476190D02*
X214074819Y-60619047D01*
X214074819Y-60619047D02*
X214074819Y-60714285D01*
X214074819Y-59333333D02*
X214074819Y-59904761D01*
X214074819Y-59619047D02*
X213074819Y-59619047D01*
X213074819Y-59619047D02*
X213217676Y-59714285D01*
X213217676Y-59714285D02*
X213312914Y-59809523D01*
X213312914Y-59809523D02*
X213360533Y-59904761D01*
X206261905Y-58954819D02*
X206261905Y-57954819D01*
X206261905Y-57954819D02*
X206500000Y-57954819D01*
X206500000Y-57954819D02*
X206642857Y-58002438D01*
X206642857Y-58002438D02*
X206738095Y-58097676D01*
X206738095Y-58097676D02*
X206785714Y-58192914D01*
X206785714Y-58192914D02*
X206833333Y-58383390D01*
X206833333Y-58383390D02*
X206833333Y-58526247D01*
X206833333Y-58526247D02*
X206785714Y-58716723D01*
X206785714Y-58716723D02*
X206738095Y-58811961D01*
X206738095Y-58811961D02*
X206642857Y-58907200D01*
X206642857Y-58907200D02*
X206500000Y-58954819D01*
X206500000Y-58954819D02*
X206261905Y-58954819D01*
X207166667Y-57954819D02*
X207833333Y-57954819D01*
X207833333Y-57954819D02*
X207404762Y-58954819D01*
X240991905Y-70494819D02*
X240991905Y-69494819D01*
X240991905Y-69494819D02*
X241230000Y-69494819D01*
X241230000Y-69494819D02*
X241372857Y-69542438D01*
X241372857Y-69542438D02*
X241468095Y-69637676D01*
X241468095Y-69637676D02*
X241515714Y-69732914D01*
X241515714Y-69732914D02*
X241563333Y-69923390D01*
X241563333Y-69923390D02*
X241563333Y-70066247D01*
X241563333Y-70066247D02*
X241515714Y-70256723D01*
X241515714Y-70256723D02*
X241468095Y-70351961D01*
X241468095Y-70351961D02*
X241372857Y-70447200D01*
X241372857Y-70447200D02*
X241230000Y-70494819D01*
X241230000Y-70494819D02*
X240991905Y-70494819D01*
X242039524Y-70494819D02*
X242230000Y-70494819D01*
X242230000Y-70494819D02*
X242325238Y-70447200D01*
X242325238Y-70447200D02*
X242372857Y-70399580D01*
X242372857Y-70399580D02*
X242468095Y-70256723D01*
X242468095Y-70256723D02*
X242515714Y-70066247D01*
X242515714Y-70066247D02*
X242515714Y-69685295D01*
X242515714Y-69685295D02*
X242468095Y-69590057D01*
X242468095Y-69590057D02*
X242420476Y-69542438D01*
X242420476Y-69542438D02*
X242325238Y-69494819D01*
X242325238Y-69494819D02*
X242134762Y-69494819D01*
X242134762Y-69494819D02*
X242039524Y-69542438D01*
X242039524Y-69542438D02*
X241991905Y-69590057D01*
X241991905Y-69590057D02*
X241944286Y-69685295D01*
X241944286Y-69685295D02*
X241944286Y-69923390D01*
X241944286Y-69923390D02*
X241991905Y-70018628D01*
X241991905Y-70018628D02*
X242039524Y-70066247D01*
X242039524Y-70066247D02*
X242134762Y-70113866D01*
X242134762Y-70113866D02*
X242325238Y-70113866D01*
X242325238Y-70113866D02*
X242420476Y-70066247D01*
X242420476Y-70066247D02*
X242468095Y-70018628D01*
X242468095Y-70018628D02*
X242515714Y-69923390D01*
X189491905Y-88494819D02*
X189491905Y-87494819D01*
X189491905Y-87494819D02*
X189730000Y-87494819D01*
X189730000Y-87494819D02*
X189872857Y-87542438D01*
X189872857Y-87542438D02*
X189968095Y-87637676D01*
X189968095Y-87637676D02*
X190015714Y-87732914D01*
X190015714Y-87732914D02*
X190063333Y-87923390D01*
X190063333Y-87923390D02*
X190063333Y-88066247D01*
X190063333Y-88066247D02*
X190015714Y-88256723D01*
X190015714Y-88256723D02*
X189968095Y-88351961D01*
X189968095Y-88351961D02*
X189872857Y-88447200D01*
X189872857Y-88447200D02*
X189730000Y-88494819D01*
X189730000Y-88494819D02*
X189491905Y-88494819D01*
X190968095Y-87494819D02*
X190491905Y-87494819D01*
X190491905Y-87494819D02*
X190444286Y-87971009D01*
X190444286Y-87971009D02*
X190491905Y-87923390D01*
X190491905Y-87923390D02*
X190587143Y-87875771D01*
X190587143Y-87875771D02*
X190825238Y-87875771D01*
X190825238Y-87875771D02*
X190920476Y-87923390D01*
X190920476Y-87923390D02*
X190968095Y-87971009D01*
X190968095Y-87971009D02*
X191015714Y-88066247D01*
X191015714Y-88066247D02*
X191015714Y-88304342D01*
X191015714Y-88304342D02*
X190968095Y-88399580D01*
X190968095Y-88399580D02*
X190920476Y-88447200D01*
X190920476Y-88447200D02*
X190825238Y-88494819D01*
X190825238Y-88494819D02*
X190587143Y-88494819D01*
X190587143Y-88494819D02*
X190491905Y-88447200D01*
X190491905Y-88447200D02*
X190444286Y-88399580D01*
X232761905Y-59454819D02*
X232761905Y-58454819D01*
X232761905Y-58454819D02*
X233000000Y-58454819D01*
X233000000Y-58454819D02*
X233142857Y-58502438D01*
X233142857Y-58502438D02*
X233238095Y-58597676D01*
X233238095Y-58597676D02*
X233285714Y-58692914D01*
X233285714Y-58692914D02*
X233333333Y-58883390D01*
X233333333Y-58883390D02*
X233333333Y-59026247D01*
X233333333Y-59026247D02*
X233285714Y-59216723D01*
X233285714Y-59216723D02*
X233238095Y-59311961D01*
X233238095Y-59311961D02*
X233142857Y-59407200D01*
X233142857Y-59407200D02*
X233000000Y-59454819D01*
X233000000Y-59454819D02*
X232761905Y-59454819D01*
X233904762Y-58883390D02*
X233809524Y-58835771D01*
X233809524Y-58835771D02*
X233761905Y-58788152D01*
X233761905Y-58788152D02*
X233714286Y-58692914D01*
X233714286Y-58692914D02*
X233714286Y-58645295D01*
X233714286Y-58645295D02*
X233761905Y-58550057D01*
X233761905Y-58550057D02*
X233809524Y-58502438D01*
X233809524Y-58502438D02*
X233904762Y-58454819D01*
X233904762Y-58454819D02*
X234095238Y-58454819D01*
X234095238Y-58454819D02*
X234190476Y-58502438D01*
X234190476Y-58502438D02*
X234238095Y-58550057D01*
X234238095Y-58550057D02*
X234285714Y-58645295D01*
X234285714Y-58645295D02*
X234285714Y-58692914D01*
X234285714Y-58692914D02*
X234238095Y-58788152D01*
X234238095Y-58788152D02*
X234190476Y-58835771D01*
X234190476Y-58835771D02*
X234095238Y-58883390D01*
X234095238Y-58883390D02*
X233904762Y-58883390D01*
X233904762Y-58883390D02*
X233809524Y-58931009D01*
X233809524Y-58931009D02*
X233761905Y-58978628D01*
X233761905Y-58978628D02*
X233714286Y-59073866D01*
X233714286Y-59073866D02*
X233714286Y-59264342D01*
X233714286Y-59264342D02*
X233761905Y-59359580D01*
X233761905Y-59359580D02*
X233809524Y-59407200D01*
X233809524Y-59407200D02*
X233904762Y-59454819D01*
X233904762Y-59454819D02*
X234095238Y-59454819D01*
X234095238Y-59454819D02*
X234190476Y-59407200D01*
X234190476Y-59407200D02*
X234238095Y-59359580D01*
X234238095Y-59359580D02*
X234285714Y-59264342D01*
X234285714Y-59264342D02*
X234285714Y-59073866D01*
X234285714Y-59073866D02*
X234238095Y-58978628D01*
X234238095Y-58978628D02*
X234190476Y-58931009D01*
X234190476Y-58931009D02*
X234095238Y-58883390D01*
X238166666Y-89074819D02*
X238166666Y-89789104D01*
X238166666Y-89789104D02*
X238119047Y-89931961D01*
X238119047Y-89931961D02*
X238023809Y-90027200D01*
X238023809Y-90027200D02*
X237880952Y-90074819D01*
X237880952Y-90074819D02*
X237785714Y-90074819D01*
X238595238Y-89170057D02*
X238642857Y-89122438D01*
X238642857Y-89122438D02*
X238738095Y-89074819D01*
X238738095Y-89074819D02*
X238976190Y-89074819D01*
X238976190Y-89074819D02*
X239071428Y-89122438D01*
X239071428Y-89122438D02*
X239119047Y-89170057D01*
X239119047Y-89170057D02*
X239166666Y-89265295D01*
X239166666Y-89265295D02*
X239166666Y-89360533D01*
X239166666Y-89360533D02*
X239119047Y-89503390D01*
X239119047Y-89503390D02*
X238547619Y-90074819D01*
X238547619Y-90074819D02*
X239166666Y-90074819D01*
X192491905Y-72994819D02*
X192491905Y-71994819D01*
X192491905Y-71994819D02*
X192730000Y-71994819D01*
X192730000Y-71994819D02*
X192872857Y-72042438D01*
X192872857Y-72042438D02*
X192968095Y-72137676D01*
X192968095Y-72137676D02*
X193015714Y-72232914D01*
X193015714Y-72232914D02*
X193063333Y-72423390D01*
X193063333Y-72423390D02*
X193063333Y-72566247D01*
X193063333Y-72566247D02*
X193015714Y-72756723D01*
X193015714Y-72756723D02*
X192968095Y-72851961D01*
X192968095Y-72851961D02*
X192872857Y-72947200D01*
X192872857Y-72947200D02*
X192730000Y-72994819D01*
X192730000Y-72994819D02*
X192491905Y-72994819D01*
X194015714Y-72994819D02*
X193444286Y-72994819D01*
X193730000Y-72994819D02*
X193730000Y-71994819D01*
X193730000Y-71994819D02*
X193634762Y-72137676D01*
X193634762Y-72137676D02*
X193539524Y-72232914D01*
X193539524Y-72232914D02*
X193444286Y-72280533D01*
X190491905Y-81494819D02*
X190491905Y-80494819D01*
X190491905Y-80494819D02*
X190730000Y-80494819D01*
X190730000Y-80494819D02*
X190872857Y-80542438D01*
X190872857Y-80542438D02*
X190968095Y-80637676D01*
X190968095Y-80637676D02*
X191015714Y-80732914D01*
X191015714Y-80732914D02*
X191063333Y-80923390D01*
X191063333Y-80923390D02*
X191063333Y-81066247D01*
X191063333Y-81066247D02*
X191015714Y-81256723D01*
X191015714Y-81256723D02*
X190968095Y-81351961D01*
X190968095Y-81351961D02*
X190872857Y-81447200D01*
X190872857Y-81447200D02*
X190730000Y-81494819D01*
X190730000Y-81494819D02*
X190491905Y-81494819D01*
X191444286Y-80590057D02*
X191491905Y-80542438D01*
X191491905Y-80542438D02*
X191587143Y-80494819D01*
X191587143Y-80494819D02*
X191825238Y-80494819D01*
X191825238Y-80494819D02*
X191920476Y-80542438D01*
X191920476Y-80542438D02*
X191968095Y-80590057D01*
X191968095Y-80590057D02*
X192015714Y-80685295D01*
X192015714Y-80685295D02*
X192015714Y-80780533D01*
X192015714Y-80780533D02*
X191968095Y-80923390D01*
X191968095Y-80923390D02*
X191396667Y-81494819D01*
X191396667Y-81494819D02*
X192015714Y-81494819D01*
X229833333Y-95109580D02*
X229785714Y-95157200D01*
X229785714Y-95157200D02*
X229642857Y-95204819D01*
X229642857Y-95204819D02*
X229547619Y-95204819D01*
X229547619Y-95204819D02*
X229404762Y-95157200D01*
X229404762Y-95157200D02*
X229309524Y-95061961D01*
X229309524Y-95061961D02*
X229261905Y-94966723D01*
X229261905Y-94966723D02*
X229214286Y-94776247D01*
X229214286Y-94776247D02*
X229214286Y-94633390D01*
X229214286Y-94633390D02*
X229261905Y-94442914D01*
X229261905Y-94442914D02*
X229309524Y-94347676D01*
X229309524Y-94347676D02*
X229404762Y-94252438D01*
X229404762Y-94252438D02*
X229547619Y-94204819D01*
X229547619Y-94204819D02*
X229642857Y-94204819D01*
X229642857Y-94204819D02*
X229785714Y-94252438D01*
X229785714Y-94252438D02*
X229833333Y-94300057D01*
X230785714Y-95204819D02*
X230214286Y-95204819D01*
X230500000Y-95204819D02*
X230500000Y-94204819D01*
X230500000Y-94204819D02*
X230404762Y-94347676D01*
X230404762Y-94347676D02*
X230309524Y-94442914D01*
X230309524Y-94442914D02*
X230214286Y-94490533D01*
X225504819Y-78571904D02*
X226314342Y-78571904D01*
X226314342Y-78571904D02*
X226409580Y-78524285D01*
X226409580Y-78524285D02*
X226457200Y-78476666D01*
X226457200Y-78476666D02*
X226504819Y-78381428D01*
X226504819Y-78381428D02*
X226504819Y-78190952D01*
X226504819Y-78190952D02*
X226457200Y-78095714D01*
X226457200Y-78095714D02*
X226409580Y-78048095D01*
X226409580Y-78048095D02*
X226314342Y-78000476D01*
X226314342Y-78000476D02*
X225504819Y-78000476D01*
X226504819Y-77000476D02*
X226504819Y-77571904D01*
X226504819Y-77286190D02*
X225504819Y-77286190D01*
X225504819Y-77286190D02*
X225647676Y-77381428D01*
X225647676Y-77381428D02*
X225742914Y-77476666D01*
X225742914Y-77476666D02*
X225790533Y-77571904D01*
X226864761Y-64954819D02*
X226531428Y-64478628D01*
X226293333Y-64954819D02*
X226293333Y-63954819D01*
X226293333Y-63954819D02*
X226674285Y-63954819D01*
X226674285Y-63954819D02*
X226769523Y-64002438D01*
X226769523Y-64002438D02*
X226817142Y-64050057D01*
X226817142Y-64050057D02*
X226864761Y-64145295D01*
X226864761Y-64145295D02*
X226864761Y-64288152D01*
X226864761Y-64288152D02*
X226817142Y-64383390D01*
X226817142Y-64383390D02*
X226769523Y-64431009D01*
X226769523Y-64431009D02*
X226674285Y-64478628D01*
X226674285Y-64478628D02*
X226293333Y-64478628D01*
X227150476Y-63954819D02*
X227483809Y-64954819D01*
X227483809Y-64954819D02*
X227817142Y-63954819D01*
X228674285Y-64954819D02*
X228102857Y-64954819D01*
X228388571Y-64954819D02*
X228388571Y-63954819D01*
X228388571Y-63954819D02*
X228293333Y-64097676D01*
X228293333Y-64097676D02*
X228198095Y-64192914D01*
X228198095Y-64192914D02*
X228102857Y-64240533D01*
X213928095Y-74344819D02*
X213928095Y-75154342D01*
X213928095Y-75154342D02*
X213975714Y-75249580D01*
X213975714Y-75249580D02*
X214023333Y-75297200D01*
X214023333Y-75297200D02*
X214118571Y-75344819D01*
X214118571Y-75344819D02*
X214309047Y-75344819D01*
X214309047Y-75344819D02*
X214404285Y-75297200D01*
X214404285Y-75297200D02*
X214451904Y-75249580D01*
X214451904Y-75249580D02*
X214499523Y-75154342D01*
X214499523Y-75154342D02*
X214499523Y-74344819D01*
X214928095Y-74440057D02*
X214975714Y-74392438D01*
X214975714Y-74392438D02*
X215070952Y-74344819D01*
X215070952Y-74344819D02*
X215309047Y-74344819D01*
X215309047Y-74344819D02*
X215404285Y-74392438D01*
X215404285Y-74392438D02*
X215451904Y-74440057D01*
X215451904Y-74440057D02*
X215499523Y-74535295D01*
X215499523Y-74535295D02*
X215499523Y-74630533D01*
X215499523Y-74630533D02*
X215451904Y-74773390D01*
X215451904Y-74773390D02*
X214880476Y-75344819D01*
X214880476Y-75344819D02*
X215499523Y-75344819D01*
X210880000Y-64045119D02*
X210880000Y-64283214D01*
X210641905Y-64187976D02*
X210880000Y-64283214D01*
X210880000Y-64283214D02*
X211118095Y-64187976D01*
X210737143Y-64473690D02*
X210880000Y-64283214D01*
X210880000Y-64283214D02*
X211022857Y-64473690D01*
X210880000Y-64045119D02*
X210880000Y-64283214D01*
X210641905Y-64187976D02*
X210880000Y-64283214D01*
X210880000Y-64283214D02*
X211118095Y-64187976D01*
X210737143Y-64473690D02*
X210880000Y-64283214D01*
X210880000Y-64283214D02*
X211022857Y-64473690D01*
X244015714Y-87494819D02*
X244015714Y-86494819D01*
X244015714Y-86494819D02*
X244253809Y-86494819D01*
X244253809Y-86494819D02*
X244396666Y-86542438D01*
X244396666Y-86542438D02*
X244491904Y-86637676D01*
X244491904Y-86637676D02*
X244539523Y-86732914D01*
X244539523Y-86732914D02*
X244587142Y-86923390D01*
X244587142Y-86923390D02*
X244587142Y-87066247D01*
X244587142Y-87066247D02*
X244539523Y-87256723D01*
X244539523Y-87256723D02*
X244491904Y-87351961D01*
X244491904Y-87351961D02*
X244396666Y-87447200D01*
X244396666Y-87447200D02*
X244253809Y-87494819D01*
X244253809Y-87494819D02*
X244015714Y-87494819D01*
X245539523Y-87494819D02*
X244968095Y-87494819D01*
X245253809Y-87494819D02*
X245253809Y-86494819D01*
X245253809Y-86494819D02*
X245158571Y-86637676D01*
X245158571Y-86637676D02*
X245063333Y-86732914D01*
X245063333Y-86732914D02*
X244968095Y-86780533D01*
X246158571Y-86494819D02*
X246253809Y-86494819D01*
X246253809Y-86494819D02*
X246349047Y-86542438D01*
X246349047Y-86542438D02*
X246396666Y-86590057D01*
X246396666Y-86590057D02*
X246444285Y-86685295D01*
X246444285Y-86685295D02*
X246491904Y-86875771D01*
X246491904Y-86875771D02*
X246491904Y-87113866D01*
X246491904Y-87113866D02*
X246444285Y-87304342D01*
X246444285Y-87304342D02*
X246396666Y-87399580D01*
X246396666Y-87399580D02*
X246349047Y-87447200D01*
X246349047Y-87447200D02*
X246253809Y-87494819D01*
X246253809Y-87494819D02*
X246158571Y-87494819D01*
X246158571Y-87494819D02*
X246063333Y-87447200D01*
X246063333Y-87447200D02*
X246015714Y-87399580D01*
X246015714Y-87399580D02*
X245968095Y-87304342D01*
X245968095Y-87304342D02*
X245920476Y-87113866D01*
X245920476Y-87113866D02*
X245920476Y-86875771D01*
X245920476Y-86875771D02*
X245968095Y-86685295D01*
X245968095Y-86685295D02*
X246015714Y-86590057D01*
X246015714Y-86590057D02*
X246063333Y-86542438D01*
X246063333Y-86542438D02*
X246158571Y-86494819D01*
D12*
%TO.C,D6*%
X197710000Y-65264000D02*
X197710000Y-65420000D01*
X197710000Y-67580000D02*
X197710000Y-67736000D01*
X197710000Y-65264484D02*
G75*
G02*
X200941437Y-65420000I1560000J-1235516D01*
G01*
X198229039Y-65420000D02*
G75*
G02*
X200310961Y-65420000I1040961J-1080000D01*
G01*
X200310961Y-67580000D02*
G75*
G02*
X198229039Y-67580000I-1040961J1080000D01*
G01*
X200941437Y-67580000D02*
G75*
G02*
X197710000Y-67735516I-1671437J1080000D01*
G01*
D13*
%TO.C,G\u002A\u002A\u002A*%
G36*
X246041704Y-121528121D02*
G01*
X247045621Y-121660893D01*
X248029104Y-121926518D01*
X248136176Y-121964228D01*
X249079379Y-122378593D01*
X249946550Y-122909470D01*
X250729707Y-123547489D01*
X251420869Y-124283277D01*
X252012052Y-125107465D01*
X252495276Y-126010682D01*
X252862556Y-126983556D01*
X253053927Y-127737518D01*
X253118227Y-128196297D01*
X253149868Y-128748034D01*
X253150241Y-129348596D01*
X253120735Y-129953846D01*
X253062740Y-130519650D01*
X252977647Y-131001874D01*
X252947308Y-131122679D01*
X252616229Y-132078523D01*
X252167959Y-132978550D01*
X251613998Y-133811132D01*
X250965850Y-134564642D01*
X250235018Y-135227451D01*
X249433003Y-135787933D01*
X248571309Y-136234459D01*
X247661439Y-136555402D01*
X247541892Y-136586870D01*
X246674555Y-136768384D01*
X245865716Y-136853734D01*
X245070950Y-136846172D01*
X244608371Y-136801682D01*
X243592091Y-136604866D01*
X242627261Y-136280046D01*
X241723476Y-135836058D01*
X240890331Y-135281740D01*
X240137421Y-134625928D01*
X239474340Y-133877457D01*
X238973552Y-133137997D01*
X239627010Y-133137997D01*
X239932377Y-133525549D01*
X240608455Y-134271065D01*
X241379280Y-134917899D01*
X242227354Y-135453006D01*
X242998512Y-135811292D01*
X243346082Y-135930376D01*
X243753220Y-136043153D01*
X244171309Y-136138509D01*
X244551730Y-136205332D01*
X244840906Y-136232422D01*
X245031517Y-136229880D01*
X245119135Y-136191532D01*
X245141383Y-136096701D01*
X245863544Y-136096701D01*
X245898825Y-136200252D01*
X245995041Y-136256504D01*
X246168676Y-136267352D01*
X246436215Y-136234691D01*
X246814144Y-136160414D01*
X247134560Y-136088941D01*
X248073844Y-135801383D01*
X248963944Y-135382217D01*
X249351403Y-135147525D01*
X249730179Y-134871274D01*
X250139264Y-134524196D01*
X250542011Y-134141411D01*
X250901773Y-133758040D01*
X251181902Y-133409202D01*
X251215293Y-133361284D01*
X251444502Y-133024114D01*
X251255368Y-132900188D01*
X251118943Y-132821053D01*
X251041619Y-132825367D01*
X250978331Y-132896477D01*
X250885936Y-133008583D01*
X250729321Y-133185463D01*
X250548327Y-133382425D01*
X250206226Y-133748159D01*
X250019621Y-133608838D01*
X249833017Y-133469518D01*
X249367173Y-133845739D01*
X248933909Y-134160232D01*
X248441512Y-134460254D01*
X247941616Y-134717008D01*
X247485855Y-134901699D01*
X247456512Y-134911322D01*
X247241228Y-134987519D01*
X247127486Y-135060635D01*
X247078989Y-135166040D01*
X247062991Y-135294828D01*
X247040357Y-135453532D01*
X246980888Y-135544619D01*
X246846212Y-135604094D01*
X246689199Y-135645566D01*
X246431958Y-135703026D01*
X246193279Y-135746732D01*
X246116805Y-135757277D01*
X245946209Y-135807350D01*
X245876157Y-135924007D01*
X245872713Y-135943959D01*
X245863544Y-136096701D01*
X245141383Y-136096701D01*
X245143778Y-136086494D01*
X245144990Y-135997756D01*
X245135958Y-135850481D01*
X245083590Y-135772807D01*
X244949983Y-135732097D01*
X244812512Y-135711488D01*
X244537664Y-135665524D01*
X244267732Y-135607920D01*
X244209082Y-135592957D01*
X244035429Y-135536270D01*
X243967071Y-135463708D01*
X243969386Y-135329392D01*
X243976341Y-135284531D01*
X243990647Y-135137222D01*
X243949416Y-135053216D01*
X243819911Y-134993320D01*
X243703292Y-134957657D01*
X243249386Y-134788039D01*
X242744594Y-134539510D01*
X242234827Y-134238556D01*
X241765993Y-133911661D01*
X241478635Y-133674275D01*
X241205279Y-133427314D01*
X241022835Y-133598659D01*
X240840390Y-133770003D01*
X240649451Y-133554685D01*
X240483671Y-133363168D01*
X240293171Y-133136856D01*
X240225995Y-133055447D01*
X239993478Y-132771528D01*
X239810244Y-132954762D01*
X239627010Y-133137997D01*
X238973552Y-133137997D01*
X238910684Y-133045166D01*
X238456048Y-132137890D01*
X238120026Y-131164466D01*
X238014691Y-130729158D01*
X237951904Y-130325839D01*
X237910096Y-129834790D01*
X237889760Y-129299243D01*
X237890504Y-129054371D01*
X238459153Y-129054371D01*
X238489268Y-129907312D01*
X238614204Y-130729649D01*
X238834272Y-131486873D01*
X238890081Y-131628319D01*
X238992803Y-131876280D01*
X239092816Y-132117835D01*
X239105531Y-132148558D01*
X239198699Y-132308459D01*
X239288916Y-132347713D01*
X239294818Y-132345365D01*
X239440997Y-132284873D01*
X239510483Y-132259169D01*
X239588464Y-132225744D01*
X239622739Y-132175257D01*
X239610563Y-132077715D01*
X239549190Y-131903128D01*
X239456821Y-131673056D01*
X239342904Y-131374780D01*
X239292973Y-131177603D01*
X239308349Y-131053981D01*
X239390349Y-130976367D01*
X239492234Y-130933211D01*
X239641227Y-130857993D01*
X239677944Y-130756304D01*
X239669197Y-130704397D01*
X239601623Y-130317015D01*
X239557181Y-129837019D01*
X239536450Y-129309707D01*
X239540009Y-128780375D01*
X239568437Y-128294319D01*
X239622313Y-127896834D01*
X239632676Y-127847421D01*
X239662437Y-127666135D01*
X239629536Y-127564182D01*
X239511322Y-127483505D01*
X239485412Y-127469950D01*
X239356707Y-127384728D01*
X239347831Y-127368987D01*
X241127088Y-127368987D01*
X241365194Y-127470327D01*
X241523907Y-127538332D01*
X241778436Y-127647899D01*
X242093282Y-127783730D01*
X242422597Y-127926048D01*
X243241893Y-128280428D01*
X243245414Y-129180399D01*
X243248934Y-130080369D01*
X242712314Y-130302894D01*
X242183704Y-130526634D01*
X241762229Y-130714705D01*
X241454828Y-130863751D01*
X241268442Y-130970419D01*
X241209779Y-131029116D01*
X241243332Y-131123491D01*
X241329558Y-131294198D01*
X241446810Y-131504316D01*
X241573441Y-131716924D01*
X241687804Y-131895102D01*
X241768252Y-132001927D01*
X241789012Y-132017045D01*
X241860351Y-131977150D01*
X242026590Y-131866906D01*
X242267151Y-131700471D01*
X242561456Y-131492007D01*
X242769153Y-131342608D01*
X243117012Y-131091684D01*
X243367992Y-130915233D01*
X243541140Y-130803834D01*
X243655503Y-130748066D01*
X243730128Y-130738508D01*
X243784063Y-130765738D01*
X243832906Y-130816449D01*
X243999320Y-130966118D01*
X244239687Y-131139264D01*
X244505333Y-131305001D01*
X244747582Y-131432446D01*
X244886081Y-131484689D01*
X245038822Y-131539591D01*
X245110980Y-131590603D01*
X245116671Y-131679578D01*
X245107147Y-131882903D01*
X245084338Y-132172857D01*
X245050177Y-132521723D01*
X245038754Y-132626966D01*
X244986815Y-133079166D01*
X244951664Y-133407969D01*
X244941224Y-133632802D01*
X244963411Y-133773091D01*
X245026147Y-133848263D01*
X245137350Y-133877744D01*
X245304940Y-133880960D01*
X245536836Y-133877339D01*
X245548478Y-133877327D01*
X246166613Y-133877327D01*
X246120657Y-133501693D01*
X246091594Y-133255996D01*
X246053909Y-132926248D01*
X246014225Y-132570682D01*
X246000591Y-132446341D01*
X245967181Y-132157201D01*
X251372885Y-132157201D01*
X251568093Y-132263132D01*
X251718799Y-132338637D01*
X251807953Y-132371914D01*
X251808142Y-132371927D01*
X251853636Y-132311779D01*
X251935896Y-132149020D01*
X252039828Y-131914408D01*
X252078658Y-131820700D01*
X252347051Y-131003653D01*
X252512725Y-130141182D01*
X252576176Y-129259833D01*
X252537900Y-128386149D01*
X252398392Y-127546675D01*
X252158147Y-126767955D01*
X251976722Y-126362232D01*
X251870052Y-126162878D01*
X251792525Y-126069013D01*
X251712448Y-126056606D01*
X251619854Y-126091631D01*
X251505864Y-126154816D01*
X251455415Y-126233742D01*
X251465946Y-126362871D01*
X251534896Y-126576667D01*
X251575636Y-126686623D01*
X251689311Y-126992864D01*
X251753793Y-127192252D01*
X251769419Y-127312189D01*
X251736525Y-127380076D01*
X251655450Y-127423314D01*
X251585009Y-127448408D01*
X251445081Y-127506610D01*
X251390900Y-127582010D01*
X251400140Y-127724763D01*
X251418619Y-127822204D01*
X251442522Y-128024624D01*
X251460032Y-128335266D01*
X251471054Y-128719391D01*
X251475496Y-129142261D01*
X251473264Y-129569139D01*
X251464265Y-129965287D01*
X251448407Y-130295965D01*
X251425862Y-130524720D01*
X251400584Y-130728774D01*
X251419157Y-130839965D01*
X251499878Y-130906225D01*
X251586109Y-130944503D01*
X251699964Y-131006891D01*
X251755193Y-131092794D01*
X251750344Y-131227622D01*
X251683964Y-131436785D01*
X251554599Y-131745693D01*
X251538147Y-131783039D01*
X251372885Y-132157201D01*
X245967181Y-132157201D01*
X245965502Y-132142671D01*
X245932574Y-131889396D01*
X245906693Y-131722717D01*
X245897365Y-131681453D01*
X245939094Y-131607156D01*
X246081154Y-131528584D01*
X246132676Y-131509988D01*
X246362414Y-131412732D01*
X246633932Y-131266229D01*
X246900530Y-131099138D01*
X247115508Y-130940120D01*
X247210794Y-130848326D01*
X247317120Y-130751886D01*
X247373810Y-130729158D01*
X247451585Y-130768890D01*
X247623432Y-130878465D01*
X247867771Y-131043454D01*
X248163024Y-131249424D01*
X248336722Y-131373102D01*
X248647298Y-131594609D01*
X248914871Y-131783208D01*
X249118907Y-131924603D01*
X249238870Y-132004497D01*
X249261637Y-132017045D01*
X249312500Y-131960272D01*
X249408531Y-131813675D01*
X249529383Y-131612835D01*
X249654709Y-131393336D01*
X249764162Y-131190759D01*
X249837394Y-131040686D01*
X249855052Y-130979313D01*
X249778887Y-130938311D01*
X249600120Y-130854193D01*
X249347854Y-130739803D01*
X249051190Y-130607984D01*
X248739230Y-130471577D01*
X248441077Y-130343427D01*
X248185831Y-130236375D01*
X248027146Y-130172644D01*
X247842847Y-130092100D01*
X247765645Y-130018298D01*
X247765881Y-129915853D01*
X247776724Y-129873872D01*
X247810098Y-129661614D01*
X247825337Y-129362052D01*
X247822316Y-129029841D01*
X247800914Y-128719638D01*
X247779656Y-128569292D01*
X247731222Y-128305482D01*
X248280501Y-128078260D01*
X248803431Y-127860547D01*
X249205909Y-127689470D01*
X249500608Y-127559173D01*
X249700197Y-127463803D01*
X249817350Y-127397502D01*
X249864737Y-127354417D01*
X249867244Y-127345052D01*
X249835964Y-127265655D01*
X249755409Y-127099187D01*
X249645504Y-126883828D01*
X249526174Y-126657759D01*
X249417347Y-126459162D01*
X249338947Y-126326218D01*
X249324495Y-126305055D01*
X249262788Y-126335281D01*
X249103309Y-126434082D01*
X248865943Y-126588581D01*
X248570576Y-126785899D01*
X248338221Y-126943790D01*
X247369610Y-127606346D01*
X246954906Y-127318147D01*
X246686855Y-127147664D01*
X246407999Y-126994945D01*
X246213018Y-126907067D01*
X245885835Y-126784187D01*
X246014077Y-125841039D01*
X246062666Y-125467572D01*
X246103164Y-125125707D01*
X246131659Y-124850691D01*
X246144243Y-124677773D01*
X246144500Y-124665355D01*
X246146681Y-124432820D01*
X245542734Y-124432820D01*
X245264655Y-124438745D01*
X245047101Y-124454539D01*
X244925065Y-124477228D01*
X244911269Y-124486482D01*
X244910003Y-124573516D01*
X244925723Y-124774653D01*
X244955756Y-125062253D01*
X244997423Y-125408678D01*
X245009974Y-125506059D01*
X245070269Y-125967129D01*
X245111344Y-126306532D01*
X245130766Y-126544713D01*
X245126099Y-126702118D01*
X245094908Y-126799190D01*
X245034758Y-126856375D01*
X244943214Y-126894117D01*
X244840906Y-126925555D01*
X244618483Y-127017982D01*
X244346846Y-127162574D01*
X244126222Y-127300722D01*
X243915505Y-127440379D01*
X243752342Y-127540788D01*
X243670944Y-127580933D01*
X243669951Y-127580989D01*
X243598675Y-127541976D01*
X243431535Y-127434247D01*
X243189461Y-127271771D01*
X242893383Y-127068513D01*
X242697075Y-126931782D01*
X242340650Y-126680427D01*
X242082306Y-126505247D01*
X241898771Y-126406578D01*
X241766776Y-126384758D01*
X241663050Y-126440125D01*
X241564323Y-126573015D01*
X241447324Y-126783767D01*
X241356758Y-126951219D01*
X241127088Y-127368987D01*
X239347831Y-127368987D01*
X239296797Y-127278487D01*
X239304660Y-127121807D01*
X239379272Y-126885270D01*
X239458188Y-126686623D01*
X239548663Y-126464834D01*
X239612536Y-126304137D01*
X239635363Y-126241277D01*
X239579397Y-126201442D01*
X239442039Y-126125167D01*
X239420151Y-126113765D01*
X239271599Y-126045452D01*
X239196840Y-126056300D01*
X239144667Y-126155808D01*
X239140831Y-126165589D01*
X239074033Y-126329291D01*
X238979024Y-126554043D01*
X238934646Y-126657013D01*
X238682152Y-127394712D01*
X238523551Y-128205335D01*
X238459153Y-129054371D01*
X237890504Y-129054371D01*
X237891391Y-128762425D01*
X237915480Y-128267568D01*
X237962523Y-127857899D01*
X237980809Y-127759862D01*
X238192859Y-126965111D01*
X238488836Y-126172323D01*
X238849729Y-125424902D01*
X238875153Y-125383738D01*
X239650186Y-125383738D01*
X239698102Y-125457927D01*
X239760906Y-125500328D01*
X239871879Y-125553173D01*
X239968686Y-125553727D01*
X240077410Y-125486494D01*
X240224136Y-125335979D01*
X240413366Y-125112733D01*
X240611260Y-124882372D01*
X240750977Y-124754258D01*
X240861356Y-124717034D01*
X240971235Y-124759343D01*
X241084631Y-124848371D01*
X241162454Y-124897971D01*
X241246880Y-124890982D01*
X241370992Y-124814124D01*
X241567243Y-124654647D01*
X242067541Y-124277980D01*
X242629009Y-123930292D01*
X243193681Y-123645726D01*
X243470495Y-123533608D01*
X243735355Y-123433936D01*
X243892949Y-123358933D01*
X243971076Y-123285999D01*
X243997536Y-123192530D01*
X244000202Y-123102937D01*
X244016099Y-122942538D01*
X244090984Y-122854071D01*
X244265646Y-122789807D01*
X244268512Y-122788989D01*
X244525103Y-122726792D01*
X244803683Y-122674212D01*
X244840906Y-122668577D01*
X245031516Y-122632656D01*
X245119337Y-122573937D01*
X245143964Y-122455357D01*
X245144990Y-122383940D01*
X245131221Y-122219665D01*
X245122651Y-122211050D01*
X245871544Y-122211050D01*
X245872083Y-122357240D01*
X245873837Y-122375778D01*
X245909454Y-122540661D01*
X246002526Y-122611477D01*
X246110906Y-122629615D01*
X246305918Y-122661819D01*
X246562440Y-122719997D01*
X246701188Y-122756825D01*
X246917695Y-122824035D01*
X247029556Y-122888466D01*
X247071114Y-122981389D01*
X247076821Y-123098859D01*
X247083014Y-123213980D01*
X247118982Y-123297226D01*
X247210808Y-123368918D01*
X247384578Y-123449379D01*
X247666375Y-123558930D01*
X247668277Y-123559652D01*
X248214799Y-123808006D01*
X248779887Y-124135228D01*
X249300323Y-124502764D01*
X249530283Y-124695192D01*
X249711963Y-124840879D01*
X249846549Y-124883493D01*
X249982071Y-124826867D01*
X250091839Y-124740005D01*
X250158244Y-124702631D01*
X250234755Y-124719256D01*
X250344470Y-124805746D01*
X250510490Y-124977969D01*
X250628459Y-125108595D01*
X250819551Y-125317780D01*
X250973838Y-125478272D01*
X251067673Y-125565838D01*
X251083582Y-125575033D01*
X251166507Y-125542123D01*
X251279569Y-125483533D01*
X251439782Y-125394528D01*
X251177172Y-125004576D01*
X250751707Y-124463299D01*
X250222076Y-123932064D01*
X249625659Y-123441943D01*
X248999836Y-123024007D01*
X248452687Y-122739821D01*
X247904791Y-122524135D01*
X247335966Y-122347270D01*
X246787260Y-122219636D01*
X246299720Y-122151640D01*
X246100079Y-122143242D01*
X245934261Y-122153368D01*
X245871544Y-122211050D01*
X245122651Y-122211050D01*
X245066218Y-122154318D01*
X244948230Y-122144182D01*
X244688924Y-122167847D01*
X244336135Y-122230360D01*
X243930931Y-122321850D01*
X243514379Y-122432443D01*
X243127545Y-122552268D01*
X242889636Y-122639052D01*
X242035353Y-123053922D01*
X241233862Y-123590987D01*
X240508728Y-124232361D01*
X239953201Y-124867919D01*
X239769902Y-125114494D01*
X239671508Y-125277847D01*
X239650186Y-125383738D01*
X238875153Y-125383738D01*
X239256527Y-124766253D01*
X239345606Y-124643813D01*
X239670983Y-124250549D01*
X240072853Y-123825965D01*
X240510611Y-123409022D01*
X240943656Y-123038685D01*
X241278134Y-122789355D01*
X242143140Y-122286874D01*
X243068071Y-121907576D01*
X244036857Y-121653396D01*
X245033425Y-121526266D01*
X246041704Y-121528121D01*
G37*
D12*
%TO.C,R2*%
X201730000Y-99130000D02*
X208270000Y-99130000D01*
X201730000Y-99460000D02*
X201730000Y-99130000D01*
X201730000Y-101540000D02*
X201730000Y-101870000D01*
X201730000Y-101870000D02*
X208270000Y-101870000D01*
X208270000Y-99130000D02*
X208270000Y-99460000D01*
X208270000Y-101870000D02*
X208270000Y-101540000D01*
%TO.C,C2*%
X215130000Y-94870000D02*
X215130000Y-92130000D01*
X222870000Y-92130000D02*
X215130000Y-92130000D01*
X222870000Y-94870000D02*
X215130000Y-94870000D01*
X222870000Y-94870000D02*
X222870000Y-92130000D01*
%TO.C,D4*%
X242170000Y-80264000D02*
X242170000Y-80420000D01*
X242170000Y-82580000D02*
X242170000Y-82736000D01*
X242170000Y-80264484D02*
G75*
G02*
X245401437Y-80420000I1560000J-1235516D01*
G01*
X242689039Y-80420000D02*
G75*
G02*
X244770961Y-80420000I1040961J-1080000D01*
G01*
X244770961Y-82580000D02*
G75*
G02*
X242689039Y-82580000I-1040961J1080000D01*
G01*
X245401437Y-82580000D02*
G75*
G02*
X242170000Y-82735516I-1671437J1080000D01*
G01*
%TO.C,R1*%
X227540000Y-99130000D02*
X227540000Y-99460000D01*
X227540000Y-101870000D02*
X227540000Y-101540000D01*
X234080000Y-99130000D02*
X227540000Y-99130000D01*
X234080000Y-99460000D02*
X234080000Y-99130000D01*
X234080000Y-101540000D02*
X234080000Y-101870000D01*
X234080000Y-101870000D02*
X227540000Y-101870000D01*
%TO.C,D3*%
X234210000Y-63764000D02*
X234210000Y-63920000D01*
X234210000Y-66080000D02*
X234210000Y-66236000D01*
X234210000Y-63764484D02*
G75*
G02*
X237441437Y-63920000I1560000J-1235516D01*
G01*
X234729039Y-63920000D02*
G75*
G02*
X236810961Y-63920000I1040961J-1080000D01*
G01*
X236810961Y-66080000D02*
G75*
G02*
X234729039Y-66080000I-1040961J1080000D01*
G01*
X237441437Y-66080000D02*
G75*
G02*
X234210000Y-66235516I-1671437J1080000D01*
G01*
D13*
%TO.C,G\u002A\u002A\u002A*%
G36*
X191400516Y-120955723D02*
G01*
X192404433Y-121088495D01*
X193387916Y-121354120D01*
X193494988Y-121391830D01*
X194438191Y-121806195D01*
X195305362Y-122337072D01*
X196088519Y-122975091D01*
X196779681Y-123710879D01*
X197370864Y-124535067D01*
X197854088Y-125438284D01*
X198221368Y-126411158D01*
X198412739Y-127165120D01*
X198477039Y-127623899D01*
X198508680Y-128175636D01*
X198509053Y-128776198D01*
X198479547Y-129381448D01*
X198421552Y-129947252D01*
X198336459Y-130429476D01*
X198306120Y-130550281D01*
X197975041Y-131506125D01*
X197526771Y-132406152D01*
X196972810Y-133238734D01*
X196324662Y-133992244D01*
X195593830Y-134655053D01*
X194791815Y-135215535D01*
X193930121Y-135662061D01*
X193020251Y-135983004D01*
X192900704Y-136014472D01*
X192033367Y-136195986D01*
X191224528Y-136281336D01*
X190429762Y-136273774D01*
X189967183Y-136229284D01*
X188950903Y-136032468D01*
X187986073Y-135707648D01*
X187082288Y-135263660D01*
X186249143Y-134709342D01*
X185496233Y-134053530D01*
X184833152Y-133305059D01*
X184332364Y-132565599D01*
X184985822Y-132565599D01*
X185291189Y-132953151D01*
X185967267Y-133698667D01*
X186738092Y-134345501D01*
X187586166Y-134880608D01*
X188357324Y-135238894D01*
X188704894Y-135357978D01*
X189112032Y-135470755D01*
X189530121Y-135566111D01*
X189910542Y-135632934D01*
X190199718Y-135660024D01*
X190390329Y-135657482D01*
X190477947Y-135619134D01*
X190500195Y-135524303D01*
X191222356Y-135524303D01*
X191257637Y-135627854D01*
X191353853Y-135684106D01*
X191527488Y-135694954D01*
X191795027Y-135662293D01*
X192172956Y-135588016D01*
X192493372Y-135516543D01*
X193432656Y-135228985D01*
X194322756Y-134809819D01*
X194710215Y-134575127D01*
X195088991Y-134298876D01*
X195498076Y-133951798D01*
X195900823Y-133569013D01*
X196260585Y-133185642D01*
X196540714Y-132836804D01*
X196574105Y-132788886D01*
X196803314Y-132451716D01*
X196614180Y-132327790D01*
X196477755Y-132248655D01*
X196400431Y-132252969D01*
X196337143Y-132324079D01*
X196244748Y-132436185D01*
X196088133Y-132613065D01*
X195907139Y-132810027D01*
X195565038Y-133175761D01*
X195378433Y-133036440D01*
X195191829Y-132897120D01*
X194725985Y-133273341D01*
X194292721Y-133587834D01*
X193800324Y-133887856D01*
X193300428Y-134144610D01*
X192844667Y-134329301D01*
X192815324Y-134338924D01*
X192600040Y-134415121D01*
X192486298Y-134488237D01*
X192437801Y-134593642D01*
X192421803Y-134722430D01*
X192399169Y-134881134D01*
X192339700Y-134972221D01*
X192205024Y-135031696D01*
X192048011Y-135073168D01*
X191790770Y-135130628D01*
X191552091Y-135174334D01*
X191475617Y-135184879D01*
X191305021Y-135234952D01*
X191234969Y-135351609D01*
X191231525Y-135371561D01*
X191222356Y-135524303D01*
X190500195Y-135524303D01*
X190502590Y-135514096D01*
X190503802Y-135425358D01*
X190494770Y-135278083D01*
X190442402Y-135200409D01*
X190308795Y-135159699D01*
X190171324Y-135139090D01*
X189896476Y-135093126D01*
X189626544Y-135035522D01*
X189567894Y-135020559D01*
X189394241Y-134963872D01*
X189325883Y-134891310D01*
X189328198Y-134756994D01*
X189335153Y-134712133D01*
X189349459Y-134564824D01*
X189308228Y-134480818D01*
X189178723Y-134420922D01*
X189062104Y-134385259D01*
X188608198Y-134215641D01*
X188103406Y-133967112D01*
X187593639Y-133666158D01*
X187124805Y-133339263D01*
X186837447Y-133101877D01*
X186564091Y-132854916D01*
X186381647Y-133026261D01*
X186199202Y-133197605D01*
X186008263Y-132982287D01*
X185842483Y-132790770D01*
X185651983Y-132564458D01*
X185584807Y-132483049D01*
X185352290Y-132199130D01*
X185169056Y-132382364D01*
X184985822Y-132565599D01*
X184332364Y-132565599D01*
X184269496Y-132472768D01*
X183814860Y-131565492D01*
X183478838Y-130592068D01*
X183373503Y-130156760D01*
X183310716Y-129753441D01*
X183268908Y-129262392D01*
X183248572Y-128726845D01*
X183249316Y-128481973D01*
X183817965Y-128481973D01*
X183848080Y-129334914D01*
X183973016Y-130157251D01*
X184193084Y-130914475D01*
X184248893Y-131055921D01*
X184351615Y-131303882D01*
X184451628Y-131545437D01*
X184464343Y-131576160D01*
X184557511Y-131736061D01*
X184647728Y-131775315D01*
X184653630Y-131772967D01*
X184799809Y-131712475D01*
X184869295Y-131686771D01*
X184947276Y-131653346D01*
X184981551Y-131602859D01*
X184969375Y-131505317D01*
X184908002Y-131330730D01*
X184815633Y-131100658D01*
X184701716Y-130802382D01*
X184651785Y-130605205D01*
X184667161Y-130481583D01*
X184749161Y-130403969D01*
X184851046Y-130360813D01*
X185000039Y-130285595D01*
X185036756Y-130183906D01*
X185028009Y-130131999D01*
X184960435Y-129744617D01*
X184915993Y-129264621D01*
X184895262Y-128737309D01*
X184898821Y-128207977D01*
X184927249Y-127721921D01*
X184981125Y-127324436D01*
X184991488Y-127275023D01*
X185021249Y-127093737D01*
X184988348Y-126991784D01*
X184870134Y-126911107D01*
X184844224Y-126897552D01*
X184715519Y-126812330D01*
X184706643Y-126796589D01*
X186485900Y-126796589D01*
X186724006Y-126897929D01*
X186882719Y-126965934D01*
X187137248Y-127075501D01*
X187452094Y-127211332D01*
X187781409Y-127353650D01*
X188600705Y-127708030D01*
X188604226Y-128608001D01*
X188607746Y-129507971D01*
X188071126Y-129730496D01*
X187542516Y-129954236D01*
X187121041Y-130142307D01*
X186813640Y-130291353D01*
X186627254Y-130398021D01*
X186568591Y-130456718D01*
X186602144Y-130551093D01*
X186688370Y-130721800D01*
X186805622Y-130931918D01*
X186932253Y-131144526D01*
X187046616Y-131322704D01*
X187127064Y-131429529D01*
X187147824Y-131444647D01*
X187219163Y-131404752D01*
X187385402Y-131294508D01*
X187625963Y-131128073D01*
X187920268Y-130919609D01*
X188127965Y-130770210D01*
X188475824Y-130519286D01*
X188726804Y-130342835D01*
X188899952Y-130231436D01*
X189014315Y-130175668D01*
X189088940Y-130166110D01*
X189142875Y-130193340D01*
X189191718Y-130244051D01*
X189358132Y-130393720D01*
X189598499Y-130566866D01*
X189864145Y-130732603D01*
X190106394Y-130860048D01*
X190244893Y-130912291D01*
X190397634Y-130967193D01*
X190469792Y-131018205D01*
X190475483Y-131107180D01*
X190465959Y-131310505D01*
X190443150Y-131600459D01*
X190408989Y-131949325D01*
X190397566Y-132054568D01*
X190345627Y-132506768D01*
X190310476Y-132835571D01*
X190300036Y-133060404D01*
X190322223Y-133200693D01*
X190384959Y-133275865D01*
X190496162Y-133305346D01*
X190663752Y-133308562D01*
X190895648Y-133304941D01*
X190907290Y-133304929D01*
X191525425Y-133304929D01*
X191479469Y-132929295D01*
X191450406Y-132683598D01*
X191412721Y-132353850D01*
X191373037Y-131998284D01*
X191359403Y-131873943D01*
X191325993Y-131584803D01*
X196731697Y-131584803D01*
X196926905Y-131690734D01*
X197077611Y-131766239D01*
X197166765Y-131799516D01*
X197166954Y-131799529D01*
X197212448Y-131739381D01*
X197294708Y-131576622D01*
X197398640Y-131342010D01*
X197437470Y-131248302D01*
X197705863Y-130431255D01*
X197871537Y-129568784D01*
X197934988Y-128687435D01*
X197896712Y-127813751D01*
X197757204Y-126974277D01*
X197516959Y-126195557D01*
X197335534Y-125789834D01*
X197228864Y-125590480D01*
X197151337Y-125496615D01*
X197071260Y-125484208D01*
X196978666Y-125519233D01*
X196864676Y-125582418D01*
X196814227Y-125661344D01*
X196824758Y-125790473D01*
X196893708Y-126004269D01*
X196934448Y-126114225D01*
X197048123Y-126420466D01*
X197112605Y-126619854D01*
X197128231Y-126739791D01*
X197095337Y-126807678D01*
X197014262Y-126850916D01*
X196943821Y-126876010D01*
X196803893Y-126934212D01*
X196749712Y-127009612D01*
X196758952Y-127152365D01*
X196777431Y-127249806D01*
X196801334Y-127452226D01*
X196818844Y-127762868D01*
X196829866Y-128146993D01*
X196834308Y-128569863D01*
X196832076Y-128996741D01*
X196823077Y-129392889D01*
X196807219Y-129723567D01*
X196784674Y-129952322D01*
X196759396Y-130156376D01*
X196777969Y-130267567D01*
X196858690Y-130333827D01*
X196944921Y-130372105D01*
X197058776Y-130434493D01*
X197114005Y-130520396D01*
X197109156Y-130655224D01*
X197042776Y-130864387D01*
X196913411Y-131173295D01*
X196896959Y-131210641D01*
X196731697Y-131584803D01*
X191325993Y-131584803D01*
X191324314Y-131570273D01*
X191291386Y-131316998D01*
X191265505Y-131150319D01*
X191256177Y-131109055D01*
X191297906Y-131034758D01*
X191439966Y-130956186D01*
X191491488Y-130937590D01*
X191721226Y-130840334D01*
X191992744Y-130693831D01*
X192259342Y-130526740D01*
X192474320Y-130367722D01*
X192569606Y-130275928D01*
X192675932Y-130179488D01*
X192732622Y-130156760D01*
X192810397Y-130196492D01*
X192982244Y-130306067D01*
X193226583Y-130471056D01*
X193521836Y-130677026D01*
X193695534Y-130800704D01*
X194006110Y-131022211D01*
X194273683Y-131210810D01*
X194477719Y-131352205D01*
X194597682Y-131432099D01*
X194620449Y-131444647D01*
X194671312Y-131387874D01*
X194767343Y-131241277D01*
X194888195Y-131040437D01*
X195013521Y-130820938D01*
X195122974Y-130618361D01*
X195196206Y-130468288D01*
X195213864Y-130406915D01*
X195137699Y-130365913D01*
X194958932Y-130281795D01*
X194706666Y-130167405D01*
X194410002Y-130035586D01*
X194098042Y-129899179D01*
X193799889Y-129771029D01*
X193544643Y-129663977D01*
X193385958Y-129600246D01*
X193201659Y-129519702D01*
X193124457Y-129445900D01*
X193124693Y-129343455D01*
X193135536Y-129301474D01*
X193168910Y-129089216D01*
X193184149Y-128789654D01*
X193181128Y-128457443D01*
X193159726Y-128147240D01*
X193138468Y-127996894D01*
X193090034Y-127733084D01*
X193639313Y-127505862D01*
X194162243Y-127288149D01*
X194564721Y-127117072D01*
X194859420Y-126986775D01*
X195059009Y-126891405D01*
X195176162Y-126825104D01*
X195223549Y-126782019D01*
X195226056Y-126772654D01*
X195194776Y-126693257D01*
X195114221Y-126526789D01*
X195004316Y-126311430D01*
X194884986Y-126085361D01*
X194776159Y-125886764D01*
X194697759Y-125753820D01*
X194683307Y-125732657D01*
X194621600Y-125762883D01*
X194462121Y-125861684D01*
X194224755Y-126016183D01*
X193929388Y-126213501D01*
X193697033Y-126371392D01*
X192728422Y-127033948D01*
X192313718Y-126745749D01*
X192045667Y-126575266D01*
X191766811Y-126422547D01*
X191571830Y-126334669D01*
X191244647Y-126211789D01*
X191372889Y-125268641D01*
X191421478Y-124895174D01*
X191461976Y-124553309D01*
X191490471Y-124278293D01*
X191503055Y-124105375D01*
X191503312Y-124092957D01*
X191505493Y-123860422D01*
X190901546Y-123860422D01*
X190623467Y-123866347D01*
X190405913Y-123882141D01*
X190283877Y-123904830D01*
X190270081Y-123914084D01*
X190268815Y-124001118D01*
X190284535Y-124202255D01*
X190314568Y-124489855D01*
X190356235Y-124836280D01*
X190368786Y-124933661D01*
X190429081Y-125394731D01*
X190470156Y-125734134D01*
X190489578Y-125972315D01*
X190484911Y-126129720D01*
X190453720Y-126226792D01*
X190393570Y-126283977D01*
X190302026Y-126321719D01*
X190199718Y-126353157D01*
X189977295Y-126445584D01*
X189705658Y-126590176D01*
X189485034Y-126728324D01*
X189274317Y-126867981D01*
X189111154Y-126968390D01*
X189029756Y-127008535D01*
X189028763Y-127008591D01*
X188957487Y-126969578D01*
X188790347Y-126861849D01*
X188548273Y-126699373D01*
X188252195Y-126496115D01*
X188055887Y-126359384D01*
X187699462Y-126108029D01*
X187441118Y-125932849D01*
X187257583Y-125834180D01*
X187125588Y-125812360D01*
X187021862Y-125867727D01*
X186923135Y-126000617D01*
X186806136Y-126211369D01*
X186715570Y-126378821D01*
X186485900Y-126796589D01*
X184706643Y-126796589D01*
X184655609Y-126706089D01*
X184663472Y-126549409D01*
X184738084Y-126312872D01*
X184817000Y-126114225D01*
X184907475Y-125892436D01*
X184971348Y-125731739D01*
X184994175Y-125668879D01*
X184938209Y-125629044D01*
X184800851Y-125552769D01*
X184778963Y-125541367D01*
X184630411Y-125473054D01*
X184555652Y-125483902D01*
X184503479Y-125583410D01*
X184499643Y-125593191D01*
X184432845Y-125756893D01*
X184337836Y-125981645D01*
X184293458Y-126084615D01*
X184040964Y-126822314D01*
X183882363Y-127632937D01*
X183817965Y-128481973D01*
X183249316Y-128481973D01*
X183250203Y-128190027D01*
X183274292Y-127695170D01*
X183321335Y-127285501D01*
X183339621Y-127187464D01*
X183551671Y-126392713D01*
X183847648Y-125599925D01*
X184208541Y-124852504D01*
X184233965Y-124811340D01*
X185008998Y-124811340D01*
X185056914Y-124885529D01*
X185119718Y-124927930D01*
X185230691Y-124980775D01*
X185327498Y-124981329D01*
X185436222Y-124914096D01*
X185582948Y-124763581D01*
X185772178Y-124540335D01*
X185970072Y-124309974D01*
X186109789Y-124181860D01*
X186220168Y-124144636D01*
X186330047Y-124186945D01*
X186443443Y-124275973D01*
X186521266Y-124325573D01*
X186605692Y-124318584D01*
X186729804Y-124241726D01*
X186926055Y-124082249D01*
X187426353Y-123705582D01*
X187987821Y-123357894D01*
X188552493Y-123073328D01*
X188829307Y-122961210D01*
X189094167Y-122861538D01*
X189251761Y-122786535D01*
X189329888Y-122713601D01*
X189356348Y-122620132D01*
X189359014Y-122530539D01*
X189374911Y-122370140D01*
X189449796Y-122281673D01*
X189624458Y-122217409D01*
X189627324Y-122216591D01*
X189883915Y-122154394D01*
X190162495Y-122101814D01*
X190199718Y-122096179D01*
X190390328Y-122060258D01*
X190478149Y-122001539D01*
X190502776Y-121882959D01*
X190503802Y-121811542D01*
X190490033Y-121647267D01*
X190481463Y-121638652D01*
X191230356Y-121638652D01*
X191230895Y-121784842D01*
X191232649Y-121803380D01*
X191268266Y-121968263D01*
X191361338Y-122039079D01*
X191469718Y-122057217D01*
X191664730Y-122089421D01*
X191921252Y-122147599D01*
X192060000Y-122184427D01*
X192276507Y-122251637D01*
X192388368Y-122316068D01*
X192429926Y-122408991D01*
X192435633Y-122526461D01*
X192441826Y-122641582D01*
X192477794Y-122724828D01*
X192569620Y-122796520D01*
X192743390Y-122876981D01*
X193025187Y-122986532D01*
X193027089Y-122987254D01*
X193573611Y-123235608D01*
X194138699Y-123562830D01*
X194659135Y-123930366D01*
X194889095Y-124122794D01*
X195070775Y-124268481D01*
X195205361Y-124311095D01*
X195340883Y-124254469D01*
X195450651Y-124167607D01*
X195517056Y-124130233D01*
X195593567Y-124146858D01*
X195703282Y-124233348D01*
X195869302Y-124405571D01*
X195987271Y-124536197D01*
X196178363Y-124745382D01*
X196332650Y-124905874D01*
X196426485Y-124993440D01*
X196442394Y-125002635D01*
X196525319Y-124969725D01*
X196638381Y-124911135D01*
X196798594Y-124822130D01*
X196535984Y-124432178D01*
X196110519Y-123890901D01*
X195580888Y-123359666D01*
X194984471Y-122869545D01*
X194358648Y-122451609D01*
X193811499Y-122167423D01*
X193263603Y-121951737D01*
X192694778Y-121774872D01*
X192146072Y-121647238D01*
X191658532Y-121579242D01*
X191458891Y-121570844D01*
X191293073Y-121580970D01*
X191230356Y-121638652D01*
X190481463Y-121638652D01*
X190425030Y-121581920D01*
X190307042Y-121571784D01*
X190047736Y-121595449D01*
X189694947Y-121657962D01*
X189289743Y-121749452D01*
X188873191Y-121860045D01*
X188486357Y-121979870D01*
X188248448Y-122066654D01*
X187394165Y-122481524D01*
X186592674Y-123018589D01*
X185867540Y-123659963D01*
X185312013Y-124295521D01*
X185128714Y-124542096D01*
X185030320Y-124705449D01*
X185008998Y-124811340D01*
X184233965Y-124811340D01*
X184615339Y-124193855D01*
X184704418Y-124071415D01*
X185029795Y-123678151D01*
X185431665Y-123253567D01*
X185869423Y-122836624D01*
X186302468Y-122466287D01*
X186636946Y-122216957D01*
X187501952Y-121714476D01*
X188426883Y-121335178D01*
X189395669Y-121080998D01*
X190392237Y-120953868D01*
X191400516Y-120955723D01*
G37*
D12*
%TO.C,J1*%
X214620000Y-61380000D02*
X214620000Y-60000000D01*
X216000000Y-61380000D02*
X214620000Y-61380000D01*
X217270000Y-58620000D02*
X219920000Y-58620000D01*
X217270000Y-61380000D02*
X217270000Y-58620000D01*
X217270000Y-61380000D02*
X219920000Y-61380000D01*
X219920000Y-61380000D02*
X219920000Y-58620000D01*
%TO.C,D7*%
X208670000Y-59264000D02*
X208670000Y-59420000D01*
X208670000Y-61580000D02*
X208670000Y-61736000D01*
X208670000Y-59264484D02*
G75*
G02*
X211901437Y-59420000I1560000J-1235516D01*
G01*
X209189039Y-59420000D02*
G75*
G02*
X211270961Y-59420000I1040961J-1080000D01*
G01*
X211270961Y-61580000D02*
G75*
G02*
X209189039Y-61580000I-1040961J1080000D01*
G01*
X211901437Y-61580000D02*
G75*
G02*
X208670000Y-61735516I-1671437J1080000D01*
G01*
%TO.C,D9*%
X240170000Y-71764000D02*
X240170000Y-71920000D01*
X240170000Y-74080000D02*
X240170000Y-74236000D01*
X240170000Y-71764484D02*
G75*
G02*
X243401437Y-71920000I1560000J-1235516D01*
G01*
X240689039Y-71920000D02*
G75*
G02*
X242770961Y-71920000I1040961J-1080000D01*
G01*
X242770961Y-74080000D02*
G75*
G02*
X240689039Y-74080000I-1040961J1080000D01*
G01*
X243401437Y-74080000D02*
G75*
G02*
X240170000Y-74235516I-1671437J1080000D01*
G01*
%TO.C,D5*%
X188670000Y-89764000D02*
X188670000Y-89920000D01*
X188670000Y-92080000D02*
X188670000Y-92236000D01*
X188670000Y-89764484D02*
G75*
G02*
X191901437Y-89920000I1560000J-1235516D01*
G01*
X189189039Y-89920000D02*
G75*
G02*
X191270961Y-89920000I1040961J-1080000D01*
G01*
X191270961Y-92080000D02*
G75*
G02*
X189189039Y-92080000I-1040961J1080000D01*
G01*
X191901437Y-92080000D02*
G75*
G02*
X188670000Y-92235516I-1671437J1080000D01*
G01*
%TO.C,D8*%
X223170000Y-58764000D02*
X223170000Y-58920000D01*
X223170000Y-61080000D02*
X223170000Y-61236000D01*
X223170000Y-58764484D02*
G75*
G02*
X226401437Y-58920000I1560000J-1235516D01*
G01*
X223689039Y-58920000D02*
G75*
G02*
X225770961Y-58920000I1040961J-1080000D01*
G01*
X225770961Y-61080000D02*
G75*
G02*
X223689039Y-61080000I-1040961J1080000D01*
G01*
X226401437Y-61080000D02*
G75*
G02*
X223170000Y-61235516I-1671437J1080000D01*
G01*
%TO.C,J2*%
X237120000Y-90620000D02*
X238500000Y-90620000D01*
X237120000Y-92000000D02*
X237120000Y-90620000D01*
X237120000Y-93270000D02*
X237120000Y-93380000D01*
X237120000Y-93270000D02*
X239880000Y-93270000D01*
X237120000Y-93380000D02*
X239880000Y-93380000D01*
X239880000Y-93270000D02*
X239880000Y-93380000D01*
%TO.C,D1*%
X191670000Y-74264000D02*
X191670000Y-74420000D01*
X191670000Y-76580000D02*
X191670000Y-76736000D01*
X191670000Y-74264484D02*
G75*
G02*
X194901437Y-74420000I1560000J-1235516D01*
G01*
X192189039Y-74420000D02*
G75*
G02*
X194270961Y-74420000I1040961J-1080000D01*
G01*
X194270961Y-76580000D02*
G75*
G02*
X192189039Y-76580000I-1040961J1080000D01*
G01*
X194901437Y-76580000D02*
G75*
G02*
X191670000Y-76735516I-1671437J1080000D01*
G01*
%TO.C,D2*%
X189670000Y-82764000D02*
X189670000Y-82920000D01*
X189670000Y-85080000D02*
X189670000Y-85236000D01*
X189670000Y-82764484D02*
G75*
G02*
X192901437Y-82920000I1560000J-1235516D01*
G01*
X190189039Y-82920000D02*
G75*
G02*
X192270961Y-82920000I1040961J-1080000D01*
G01*
X192270961Y-85080000D02*
G75*
G02*
X190189039Y-85080000I-1040961J1080000D01*
G01*
X192901437Y-85080000D02*
G75*
G02*
X189670000Y-85235516I-1671437J1080000D01*
G01*
%TO.C,C1*%
X227400000Y-91283000D02*
X227400000Y-90717000D01*
X227440000Y-91517000D02*
X227440000Y-90483000D01*
X227480000Y-91677000D02*
X227480000Y-90323000D01*
X227520000Y-91805000D02*
X227520000Y-90195000D01*
X227560000Y-91914000D02*
X227560000Y-90086000D01*
X227600000Y-92011000D02*
X227600000Y-89989000D01*
X227640000Y-92098000D02*
X227640000Y-89902000D01*
X227680000Y-92177000D02*
X227680000Y-89823000D01*
X227720000Y-92251000D02*
X227720000Y-89749000D01*
X227760000Y-92319000D02*
X227760000Y-89681000D01*
X227800000Y-92383000D02*
X227800000Y-89617000D01*
X227840000Y-92443000D02*
X227840000Y-89557000D01*
X227880000Y-92499000D02*
X227880000Y-89501000D01*
X227920000Y-92553000D02*
X227920000Y-89447000D01*
X227960000Y-92604000D02*
X227960000Y-89396000D01*
X228000000Y-89960000D02*
X228000000Y-89348000D01*
X228000000Y-92652000D02*
X228000000Y-92040000D01*
X228040000Y-89960000D02*
X228040000Y-89301000D01*
X228040000Y-92699000D02*
X228040000Y-92040000D01*
X228080000Y-89960000D02*
X228080000Y-89257000D01*
X228080000Y-92743000D02*
X228080000Y-92040000D01*
X228120000Y-89960000D02*
X228120000Y-89215000D01*
X228120000Y-92785000D02*
X228120000Y-92040000D01*
X228160000Y-89960000D02*
X228160000Y-89175000D01*
X228160000Y-92825000D02*
X228160000Y-92040000D01*
X228200000Y-89960000D02*
X228200000Y-89136000D01*
X228200000Y-92864000D02*
X228200000Y-92040000D01*
X228240000Y-89960000D02*
X228240000Y-89099000D01*
X228240000Y-92901000D02*
X228240000Y-92040000D01*
X228280000Y-89960000D02*
X228280000Y-89064000D01*
X228280000Y-92936000D02*
X228280000Y-92040000D01*
X228320000Y-89960000D02*
X228320000Y-89030000D01*
X228320000Y-92970000D02*
X228320000Y-92040000D01*
X228360000Y-89960000D02*
X228360000Y-88997000D01*
X228360000Y-93003000D02*
X228360000Y-92040000D01*
X228400000Y-89960000D02*
X228400000Y-88965000D01*
X228400000Y-93035000D02*
X228400000Y-92040000D01*
X228440000Y-89960000D02*
X228440000Y-88935000D01*
X228440000Y-93065000D02*
X228440000Y-92040000D01*
X228480000Y-89960000D02*
X228480000Y-88906000D01*
X228480000Y-93094000D02*
X228480000Y-92040000D01*
X228520000Y-89960000D02*
X228520000Y-88878000D01*
X228520000Y-93122000D02*
X228520000Y-92040000D01*
X228560000Y-89960000D02*
X228560000Y-88851000D01*
X228560000Y-93149000D02*
X228560000Y-92040000D01*
X228600000Y-89960000D02*
X228600000Y-88825000D01*
X228600000Y-93175000D02*
X228600000Y-92040000D01*
X228640000Y-89960000D02*
X228640000Y-88801000D01*
X228640000Y-93199000D02*
X228640000Y-92040000D01*
X228680000Y-89960000D02*
X228680000Y-88777000D01*
X228680000Y-93223000D02*
X228680000Y-92040000D01*
X228720000Y-89960000D02*
X228720000Y-88754000D01*
X228720000Y-93246000D02*
X228720000Y-92040000D01*
X228760000Y-89960000D02*
X228760000Y-88732000D01*
X228760000Y-93268000D02*
X228760000Y-92040000D01*
X228800000Y-89960000D02*
X228800000Y-88711000D01*
X228800000Y-93289000D02*
X228800000Y-92040000D01*
X228840000Y-89960000D02*
X228840000Y-88691000D01*
X228840000Y-93309000D02*
X228840000Y-92040000D01*
X228880000Y-89960000D02*
X228880000Y-88671000D01*
X228880000Y-93329000D02*
X228880000Y-92040000D01*
X228920000Y-89960000D02*
X228920000Y-88653000D01*
X228920000Y-93347000D02*
X228920000Y-92040000D01*
X228960000Y-89960000D02*
X228960000Y-88635000D01*
X228960000Y-93365000D02*
X228960000Y-92040000D01*
X229000000Y-89960000D02*
X229000000Y-88618000D01*
X229000000Y-93382000D02*
X229000000Y-92040000D01*
X229040000Y-89960000D02*
X229040000Y-88602000D01*
X229040000Y-93398000D02*
X229040000Y-92040000D01*
X229080000Y-89960000D02*
X229080000Y-88587000D01*
X229080000Y-93413000D02*
X229080000Y-92040000D01*
X229120000Y-89960000D02*
X229120000Y-88572000D01*
X229120000Y-93428000D02*
X229120000Y-92040000D01*
X229160000Y-89960000D02*
X229160000Y-88558000D01*
X229160000Y-93442000D02*
X229160000Y-92040000D01*
X229200000Y-89960000D02*
X229200000Y-88545000D01*
X229200000Y-93455000D02*
X229200000Y-92040000D01*
X229240000Y-89960000D02*
X229240000Y-88533000D01*
X229240000Y-93467000D02*
X229240000Y-92040000D01*
X229280000Y-89960000D02*
X229280000Y-88521000D01*
X229280000Y-93479000D02*
X229280000Y-92040000D01*
X229320000Y-89960000D02*
X229320000Y-88510000D01*
X229320000Y-93490000D02*
X229320000Y-92040000D01*
X229360000Y-89960000D02*
X229360000Y-88499000D01*
X229360000Y-93501000D02*
X229360000Y-92040000D01*
X229400000Y-89960000D02*
X229400000Y-88490000D01*
X229400000Y-93510000D02*
X229400000Y-92040000D01*
X229440000Y-89960000D02*
X229440000Y-88481000D01*
X229440000Y-93519000D02*
X229440000Y-92040000D01*
X229480000Y-89960000D02*
X229480000Y-88472000D01*
X229480000Y-93528000D02*
X229480000Y-92040000D01*
X229520000Y-89960000D02*
X229520000Y-88464000D01*
X229520000Y-93536000D02*
X229520000Y-92040000D01*
X229560000Y-89960000D02*
X229560000Y-88457000D01*
X229560000Y-93543000D02*
X229560000Y-92040000D01*
X229600000Y-89960000D02*
X229600000Y-88451000D01*
X229600000Y-93549000D02*
X229600000Y-92040000D01*
X229640000Y-89960000D02*
X229640000Y-88445000D01*
X229640000Y-93555000D02*
X229640000Y-92040000D01*
X229680000Y-89960000D02*
X229680000Y-88440000D01*
X229680000Y-93560000D02*
X229680000Y-92040000D01*
X229720000Y-89960000D02*
X229720000Y-88435000D01*
X229720000Y-93565000D02*
X229720000Y-92040000D01*
X229760000Y-89960000D02*
X229760000Y-88431000D01*
X229760000Y-93569000D02*
X229760000Y-92040000D01*
X229800000Y-89960000D02*
X229800000Y-88428000D01*
X229800000Y-93572000D02*
X229800000Y-92040000D01*
X229840000Y-89960000D02*
X229840000Y-88425000D01*
X229840000Y-93575000D02*
X229840000Y-92040000D01*
X229880000Y-89960000D02*
X229880000Y-88423000D01*
X229880000Y-93577000D02*
X229880000Y-92040000D01*
X229920000Y-89960000D02*
X229920000Y-88421000D01*
X229920000Y-93579000D02*
X229920000Y-92040000D01*
X229960000Y-89960000D02*
X229960000Y-88420000D01*
X229960000Y-93580000D02*
X229960000Y-92040000D01*
X230000000Y-89960000D02*
X230000000Y-88420000D01*
X230000000Y-93580000D02*
X230000000Y-92040000D01*
X232554775Y-92725000D02*
X232554775Y-92225000D01*
X232804775Y-92475000D02*
X232304775Y-92475000D01*
X232620000Y-91000000D02*
G75*
G02*
X227380000Y-91000000I-2620000J0D01*
G01*
X227380000Y-91000000D02*
G75*
G02*
X232620000Y-91000000I2620000J0D01*
G01*
%TO.C,U1*%
X227050000Y-75160000D02*
X227050000Y-76810000D01*
X227050000Y-78810000D02*
X227050000Y-80460000D01*
X227050000Y-80460000D02*
X237330000Y-80460000D01*
X237330000Y-75160000D02*
X227050000Y-75160000D01*
X237330000Y-80460000D02*
X237330000Y-75160000D01*
X227050000Y-76810000D02*
G75*
G02*
X227050000Y-78810000I0J-1000000D01*
G01*
%TO.C,RV1*%
X222500000Y-65390000D02*
X222500000Y-70610000D01*
X222500000Y-65390000D02*
X224620000Y-65390000D01*
X222500000Y-70610000D02*
X232420000Y-70610000D01*
X225320000Y-65390000D02*
X232420000Y-65390000D01*
X232420000Y-65390000D02*
X232420000Y-70610000D01*
X224920000Y-65390000D02*
X224680000Y-65060000D01*
X225160000Y-65060000D01*
X224920000Y-65390000D01*
G36*
X224920000Y-65390000D02*
G01*
X224680000Y-65060000D01*
X225160000Y-65060000D01*
X224920000Y-65390000D01*
G37*
D14*
%TO.C,U2*%
X211388000Y-66980440D02*
X211388000Y-67701431D01*
X211388000Y-69378569D02*
X211388000Y-70241431D01*
X211388000Y-71918569D02*
X211388000Y-72781431D01*
X211388000Y-74458569D02*
X211388000Y-75321431D01*
X211388000Y-76998569D02*
X211388000Y-77861431D01*
X211388000Y-79538569D02*
X211388000Y-80401431D01*
X211388000Y-82078569D02*
X211388000Y-82941431D01*
X211388000Y-84732500D02*
X217992000Y-84732500D01*
X217992000Y-65047500D02*
X211661165Y-65047500D01*
X217992000Y-67701431D02*
X217992000Y-66838569D01*
X217992000Y-70241431D02*
X217992000Y-69378569D01*
X217992000Y-72781431D02*
X217992000Y-71918569D01*
X217992000Y-75321431D02*
X217992000Y-74458569D01*
X217992000Y-77861431D02*
X217992000Y-76998569D01*
X217992000Y-80401431D02*
X217992000Y-79538569D01*
X217992000Y-82941431D02*
X217992000Y-82078569D01*
X214994800Y-65047500D02*
G75*
G02*
X214385200Y-65047500I-304800J0D01*
G01*
D12*
%TO.C,D10*%
X243670000Y-88764000D02*
X243670000Y-88920000D01*
X243670000Y-91080000D02*
X243670000Y-91236000D01*
X243670000Y-88764484D02*
G75*
G02*
X246901437Y-88920000I1560000J-1235516D01*
G01*
X244189039Y-88920000D02*
G75*
G02*
X246270961Y-88920000I1040961J-1080000D01*
G01*
X246270961Y-91080000D02*
G75*
G02*
X244189039Y-91080000I-1040961J1080000D01*
G01*
X246901437Y-91080000D02*
G75*
G02*
X243670000Y-91235516I-1671437J1080000D01*
G01*
D13*
%TO.C,G\u002A\u002A\u002A*%
G36*
X237454112Y-85963388D02*
G01*
X239141453Y-86293037D01*
X240295576Y-86815665D01*
X241529705Y-87654479D01*
X242698060Y-88670485D01*
X243654866Y-89724690D01*
X244254342Y-90678101D01*
X244377307Y-91285207D01*
X244057820Y-92050679D01*
X243421382Y-92190513D01*
X242490720Y-91708793D01*
X241428065Y-90755142D01*
X239893539Y-89456046D01*
X238227841Y-88662145D01*
X237969946Y-88581391D01*
X236842341Y-88278988D01*
X235818137Y-88107051D01*
X234743524Y-88072162D01*
X233464690Y-88180904D01*
X231827825Y-88439858D01*
X229679118Y-88855606D01*
X229176666Y-88957692D01*
X224450705Y-89750387D01*
X220057621Y-90102330D01*
X215769348Y-90016921D01*
X211357823Y-89497565D01*
X209908934Y-89245142D01*
X206439085Y-88663413D01*
X203562742Y-88338122D01*
X201201832Y-88278902D01*
X199278281Y-88495390D01*
X197714016Y-88997218D01*
X196430964Y-89794023D01*
X195351051Y-90895440D01*
X195224743Y-91057260D01*
X194315087Y-91972058D01*
X193464244Y-92320654D01*
X192801877Y-92074178D01*
X192595697Y-91408850D01*
X192891462Y-90474538D01*
X193595325Y-89398440D01*
X194613440Y-88307755D01*
X195851959Y-87329682D01*
X196653061Y-86854350D01*
X198539878Y-86210347D01*
X201003603Y-85923725D01*
X204001127Y-85994776D01*
X207489341Y-86423798D01*
X209377464Y-86767342D01*
X213886278Y-87483383D01*
X218137848Y-87747322D01*
X222389951Y-87559388D01*
X226900359Y-86919808D01*
X227622535Y-86783493D01*
X231511474Y-86149241D01*
X234789466Y-85875838D01*
X237454112Y-85963388D01*
G37*
G36*
X244383543Y-102025094D02*
G01*
X244640699Y-102166166D01*
X244675568Y-102187239D01*
X245153406Y-102594276D01*
X245343493Y-103137748D01*
X245217999Y-103906469D01*
X244749090Y-104989257D01*
X243908933Y-106474927D01*
X242752853Y-108322781D01*
X241214394Y-110706126D01*
X239990626Y-112558667D01*
X239021991Y-113959410D01*
X238248929Y-114987359D01*
X237611881Y-115721519D01*
X237051288Y-116240895D01*
X236507590Y-116624491D01*
X236483176Y-116639455D01*
X235479521Y-117147314D01*
X234511428Y-117362546D01*
X233482235Y-117249896D01*
X232295275Y-116774104D01*
X230853885Y-115899912D01*
X229061400Y-114592063D01*
X227500219Y-113362958D01*
X225513526Y-111800742D01*
X223932960Y-110653533D01*
X222631481Y-109859195D01*
X221482049Y-109355593D01*
X220357626Y-109080592D01*
X219131171Y-108972058D01*
X218499999Y-108960929D01*
X217051397Y-109034279D01*
X215730858Y-109306898D01*
X214409803Y-109842345D01*
X212959653Y-110704177D01*
X211251827Y-111955954D01*
X209398413Y-113459968D01*
X207278748Y-115150406D01*
X205542348Y-116337226D01*
X204099131Y-117053352D01*
X202859017Y-117331706D01*
X201731927Y-117205212D01*
X200627782Y-116706792D01*
X200585250Y-116681068D01*
X199926747Y-116188522D01*
X199180962Y-115434279D01*
X198288551Y-114342412D01*
X197190169Y-112836995D01*
X195826471Y-110842101D01*
X194743329Y-109206847D01*
X193341716Y-107023932D01*
X192345670Y-105342828D01*
X191728901Y-104094882D01*
X191465120Y-103211439D01*
X191528038Y-102623845D01*
X191891364Y-102263446D01*
X192056019Y-102188978D01*
X192568313Y-102035975D01*
X192982558Y-102104795D01*
X193412945Y-102497169D01*
X193973666Y-103314829D01*
X194723611Y-104565492D01*
X195800139Y-106329494D01*
X197018802Y-108221119D01*
X198274036Y-110086249D01*
X199460273Y-111770768D01*
X200471949Y-113120560D01*
X201094815Y-113866901D01*
X201878287Y-114553666D01*
X202676948Y-114829377D01*
X203597280Y-114666623D01*
X204745759Y-114037992D01*
X206228864Y-112916074D01*
X206873239Y-112379347D01*
X208783310Y-110791794D01*
X210324365Y-109588109D01*
X211646749Y-108660026D01*
X212900808Y-107899282D01*
X213670422Y-107484632D01*
X214842173Y-106937467D01*
X215908888Y-106624802D01*
X217162505Y-106484344D01*
X218499999Y-106454090D01*
X220521235Y-106574475D01*
X222333931Y-106999160D01*
X224103441Y-107799598D01*
X225995122Y-109047244D01*
X227750119Y-110451326D01*
X230032440Y-112326119D01*
X231830844Y-113681344D01*
X233149926Y-114520197D01*
X233994284Y-114845876D01*
X234073586Y-114850704D01*
X234815980Y-114645816D01*
X235680763Y-113999127D01*
X236709749Y-112862600D01*
X237944753Y-111188198D01*
X239427588Y-108927883D01*
X239931676Y-108120828D01*
X241248521Y-105994847D01*
X242243948Y-104405407D01*
X242974635Y-103281615D01*
X243497260Y-102552580D01*
X243868501Y-102147409D01*
X244145036Y-101995211D01*
X244383543Y-102025094D01*
G37*
G36*
X219195613Y-116872745D02*
G01*
X220090929Y-117606272D01*
X221165251Y-118871145D01*
X222476840Y-120708952D01*
X223291268Y-121934346D01*
X224181443Y-123275837D01*
X224784831Y-124099682D01*
X225196125Y-124493546D01*
X225510018Y-124545097D01*
X225821203Y-124342001D01*
X225857163Y-124309844D01*
X226941956Y-123738310D01*
X228350683Y-123523747D01*
X229773398Y-123691278D01*
X230420229Y-123939999D01*
X231644760Y-124906592D01*
X232349983Y-126161904D01*
X232569157Y-127558941D01*
X232335540Y-128950711D01*
X231682393Y-130190222D01*
X230642976Y-131130479D01*
X229250548Y-131624491D01*
X228672364Y-131664788D01*
X227011651Y-131406487D01*
X225595949Y-130705615D01*
X224567881Y-129673217D01*
X224070067Y-128420340D01*
X224045070Y-128061955D01*
X223912337Y-127601967D01*
X226549295Y-127601967D01*
X226813069Y-128313275D01*
X227426828Y-129034464D01*
X228124228Y-129480189D01*
X228338028Y-129518309D01*
X228747313Y-129334626D01*
X229331666Y-128961404D01*
X230018841Y-128147367D01*
X230119294Y-127245674D01*
X229699932Y-126459706D01*
X228827657Y-125992847D01*
X228338028Y-125940844D01*
X227241922Y-126203227D01*
X226645554Y-126957925D01*
X226549295Y-127601967D01*
X223912337Y-127601967D01*
X223831493Y-127321801D01*
X223294261Y-126364744D01*
X223024028Y-125992326D01*
X222336194Y-125065641D01*
X221431942Y-123782600D01*
X220483008Y-122387902D01*
X220280830Y-122083621D01*
X219489306Y-120953700D01*
X218831133Y-120138394D01*
X218406968Y-119757056D01*
X218319736Y-119758269D01*
X217596615Y-120682151D01*
X216713280Y-121924251D01*
X215758436Y-123345003D01*
X214820791Y-124804843D01*
X213989052Y-126164205D01*
X213351926Y-127283526D01*
X212998120Y-128023239D01*
X212954929Y-128198844D01*
X212629844Y-129403153D01*
X211768618Y-130424719D01*
X210542291Y-131189532D01*
X209121904Y-131623582D01*
X207678497Y-131652859D01*
X206383113Y-131203354D01*
X206235303Y-131106452D01*
X205485411Y-130372456D01*
X204903590Y-129514358D01*
X204417174Y-127933342D01*
X204446624Y-127574222D01*
X206873239Y-127574222D01*
X207143130Y-128319803D01*
X207774685Y-129052405D01*
X208500724Y-129487993D01*
X208701939Y-129518309D01*
X209122883Y-129315015D01*
X209777807Y-128840261D01*
X210347079Y-128241478D01*
X210394024Y-127594098D01*
X210258038Y-127140965D01*
X209682125Y-126316970D01*
X208842714Y-125959800D01*
X207953427Y-126042113D01*
X207227887Y-126536563D01*
X206879718Y-127415808D01*
X206873239Y-127574222D01*
X204446624Y-127574222D01*
X204538648Y-126452062D01*
X205160411Y-125169923D01*
X206174860Y-124186330D01*
X207474392Y-123600687D01*
X208951405Y-123512397D01*
X210498297Y-124020866D01*
X210714974Y-124145734D01*
X211873610Y-124852175D01*
X214072720Y-121550735D01*
X215043764Y-120118837D01*
X215944444Y-118836671D01*
X216658226Y-117867645D01*
X217001092Y-117444366D01*
X217708956Y-116833379D01*
X218421042Y-116628976D01*
X219195613Y-116872745D01*
G37*
G36*
X236997636Y-93295463D02*
G01*
X237984174Y-93600617D01*
X238821426Y-94110665D01*
X238873518Y-94151140D01*
X240079384Y-95533008D01*
X240767707Y-97298351D01*
X240922892Y-99320765D01*
X240529344Y-101473846D01*
X239955104Y-102918018D01*
X238689732Y-104814132D01*
X237001548Y-106167343D01*
X234864991Y-106989898D01*
X232254498Y-107294041D01*
X230884718Y-107263073D01*
X228586210Y-106973721D01*
X226524208Y-106341949D01*
X224476657Y-105279561D01*
X222562589Y-103957697D01*
X221029002Y-102901239D01*
X219713943Y-102280361D01*
X218474728Y-102105683D01*
X217168675Y-102387830D01*
X215653101Y-103137424D01*
X213785322Y-104365087D01*
X213397367Y-104640042D01*
X212005050Y-105527091D01*
X210526542Y-106302358D01*
X209307787Y-106788958D01*
X207107622Y-107225536D01*
X204802071Y-107315536D01*
X202651615Y-107065197D01*
X201149295Y-106593588D01*
X199084807Y-105326846D01*
X197488855Y-103664397D01*
X196421221Y-101718277D01*
X195941685Y-99600520D01*
X195967906Y-99261382D01*
X198304291Y-99261382D01*
X198755253Y-100968012D01*
X198770655Y-101005107D01*
X199482802Y-102149607D01*
X200561720Y-103285275D01*
X201773194Y-104201323D01*
X202855152Y-104681052D01*
X203703593Y-104873443D01*
X204190140Y-104991434D01*
X204958287Y-105024330D01*
X206155351Y-104900076D01*
X207521876Y-104656637D01*
X208798405Y-104331979D01*
X208887460Y-104304084D01*
X209843599Y-103889039D01*
X211155987Y-103175537D01*
X212603463Y-102287650D01*
X213256072Y-101853249D01*
X215275067Y-100581508D01*
X216986308Y-99815344D01*
X218543612Y-99558693D01*
X220100797Y-99815492D01*
X221811678Y-100589680D01*
X223830073Y-101885193D01*
X224180282Y-102132874D01*
X226276453Y-103476430D01*
X228172789Y-104320499D01*
X230090332Y-104744210D01*
X231725330Y-104833802D01*
X233522867Y-104702755D01*
X234994121Y-104258949D01*
X235507259Y-104010005D01*
X236921653Y-102959161D01*
X237933127Y-101602330D01*
X238503356Y-100089878D01*
X238594014Y-98572174D01*
X238166775Y-97199584D01*
X237462734Y-96337882D01*
X236816629Y-95893489D01*
X236053562Y-95639954D01*
X235056577Y-95579787D01*
X233708717Y-95715498D01*
X231893026Y-96049595D01*
X229852374Y-96501149D01*
X228294271Y-96846384D01*
X226944977Y-97098932D01*
X225640511Y-97273006D01*
X224216894Y-97382818D01*
X222510145Y-97442580D01*
X220356285Y-97466504D01*
X218678873Y-97469573D01*
X216127822Y-97459832D01*
X214121101Y-97421231D01*
X212487689Y-97339293D01*
X211056566Y-97199541D01*
X209656714Y-96987496D01*
X208117113Y-96688683D01*
X207235018Y-96500818D01*
X204919888Y-96016160D01*
X203181559Y-95708484D01*
X201903279Y-95578931D01*
X200968301Y-95628644D01*
X200259875Y-95858763D01*
X199661251Y-96270432D01*
X199333044Y-96578114D01*
X198493996Y-97820852D01*
X198304291Y-99261382D01*
X195967906Y-99261382D01*
X196110030Y-97423162D01*
X196156644Y-97236990D01*
X196750120Y-95692033D01*
X197642953Y-94537905D01*
X198889110Y-93763573D01*
X200542556Y-93358003D01*
X202657257Y-93310163D01*
X205287178Y-93609020D01*
X208486284Y-94243541D01*
X209560631Y-94496624D01*
X211070932Y-94826171D01*
X212534477Y-95050595D01*
X214146366Y-95187010D01*
X216101695Y-95252526D01*
X218321126Y-95265007D01*
X220708538Y-95239799D01*
X222661288Y-95157522D01*
X224438717Y-94991303D01*
X226300167Y-94714264D01*
X228504983Y-94299530D01*
X229411267Y-94115744D01*
X232068627Y-93605342D01*
X234147230Y-93298227D01*
X235754444Y-93194800D01*
X236997636Y-93295463D01*
G37*
G36*
X222905551Y-57801242D02*
G01*
X225335903Y-58163994D01*
X227762631Y-58773604D01*
X228727311Y-59074152D01*
X232896921Y-60730750D01*
X236500805Y-62809262D01*
X239549614Y-65323943D01*
X242053999Y-68289047D01*
X244024610Y-71718826D01*
X245472098Y-75627536D01*
X246407114Y-80029430D01*
X246747129Y-83190140D01*
X246846432Y-84259463D01*
X247006035Y-85341099D01*
X247253077Y-86536970D01*
X247614697Y-87948995D01*
X248118033Y-89679097D01*
X248790222Y-91829197D01*
X249658405Y-94501215D01*
X250178448Y-96076790D01*
X251008811Y-98616306D01*
X251759107Y-100973344D01*
X252400261Y-103051518D01*
X252903196Y-104754446D01*
X253238837Y-105985743D01*
X253378108Y-106649027D01*
X253380281Y-106690570D01*
X253132321Y-107557146D01*
X252305791Y-108305112D01*
X252217605Y-108361031D01*
X251407079Y-108939591D01*
X250473648Y-109759748D01*
X249362825Y-110880727D01*
X248020125Y-112361751D01*
X246391062Y-114262045D01*
X244421152Y-116640833D01*
X243050676Y-118325209D01*
X241477072Y-120276286D01*
X240300330Y-121765263D01*
X239463000Y-122882792D01*
X238907636Y-123719524D01*
X238576789Y-124366113D01*
X238413011Y-124913209D01*
X238358855Y-125451464D01*
X238354929Y-125735029D01*
X238013572Y-128142943D01*
X237046702Y-130503145D01*
X235540116Y-132690691D01*
X233579614Y-134580638D01*
X231284101Y-136031797D01*
X228892544Y-137209859D01*
X219045567Y-137294590D01*
X216079496Y-137316058D01*
X213733997Y-137320348D01*
X211914257Y-137302682D01*
X210525463Y-137258282D01*
X209472803Y-137182369D01*
X208661463Y-137070167D01*
X207996630Y-136916896D01*
X207383490Y-136717778D01*
X207348629Y-136705127D01*
X204524398Y-135356885D01*
X202203757Y-133579556D01*
X200431959Y-131427678D01*
X199254254Y-128955787D01*
X198722721Y-126309113D01*
X198537686Y-123973239D01*
X194072158Y-118428168D01*
X191530222Y-115320401D01*
X189371533Y-112787698D01*
X187579302Y-110811916D01*
X186136736Y-109374910D01*
X185027044Y-108458534D01*
X184603521Y-108196067D01*
X183807208Y-107505683D01*
X183619718Y-106760236D01*
X183728944Y-106160660D01*
X183774085Y-105987889D01*
X186066534Y-105987889D01*
X188424503Y-108183381D01*
X189357047Y-109123765D01*
X190627123Y-110507893D01*
X192130532Y-112216658D01*
X193763074Y-114130952D01*
X195420551Y-116131666D01*
X195965884Y-116803769D01*
X201149295Y-123228665D01*
X201149295Y-125493373D01*
X201322360Y-127491469D01*
X201903908Y-129179233D01*
X202987474Y-130749864D01*
X204359994Y-132125360D01*
X205226478Y-132878634D01*
X206027941Y-133477354D01*
X206858701Y-133939485D01*
X207813077Y-134282992D01*
X208985388Y-134525841D01*
X210469951Y-134685997D01*
X212361086Y-134781426D01*
X214753111Y-134830093D01*
X217740345Y-134849964D01*
X218678873Y-134852768D01*
X221537137Y-134858091D01*
X223775982Y-134852737D01*
X225491472Y-134829786D01*
X226779672Y-134782316D01*
X227736647Y-134703406D01*
X228458459Y-134586135D01*
X229041174Y-134423580D01*
X229580856Y-134208822D01*
X229947887Y-134040852D01*
X231583103Y-133022286D01*
X233180150Y-131595123D01*
X234517472Y-129984447D01*
X235299194Y-128604401D01*
X235625173Y-127447471D01*
X235823112Y-126018420D01*
X235850704Y-125349206D01*
X235850704Y-123413961D01*
X241530439Y-116336775D01*
X243192687Y-114293225D01*
X244818670Y-112344923D01*
X246321697Y-110591939D01*
X247615079Y-109134339D01*
X248612125Y-108072191D01*
X249073710Y-107629414D01*
X250937246Y-105999238D01*
X247686932Y-96241671D01*
X246680816Y-93166784D01*
X245837995Y-90478650D01*
X245176664Y-88240166D01*
X244715018Y-86514227D01*
X244471255Y-85363727D01*
X244436619Y-85006610D01*
X244323238Y-82796040D01*
X244015740Y-80288498D01*
X243563091Y-77786804D01*
X243014259Y-75593780D01*
X242813673Y-74970046D01*
X241684480Y-72410784D01*
X240136245Y-69878366D01*
X238331345Y-67607794D01*
X236581276Y-65950195D01*
X234509957Y-64521066D01*
X232018109Y-63128498D01*
X229392623Y-61916250D01*
X226920387Y-61028078D01*
X226549295Y-60923241D01*
X225348934Y-60657381D01*
X223953423Y-60472873D01*
X222219408Y-60358777D01*
X220003533Y-60304155D01*
X218321126Y-60295358D01*
X216014413Y-60306280D01*
X214263222Y-60350319D01*
X212907796Y-60443052D01*
X211788377Y-60600058D01*
X210745211Y-60836914D01*
X209735211Y-61132578D01*
X205803214Y-62649751D01*
X202337020Y-64584822D01*
X199418268Y-66891011D01*
X199034870Y-67263904D01*
X196841676Y-69817634D01*
X195144891Y-72631425D01*
X193907443Y-75798138D01*
X193092263Y-79410632D01*
X192685884Y-83168205D01*
X192599405Y-84296369D01*
X192475340Y-85346932D01*
X192286309Y-86425503D01*
X192004932Y-87637695D01*
X191603828Y-89089117D01*
X191055618Y-90885382D01*
X190332919Y-93132099D01*
X189408353Y-95934880D01*
X189261216Y-96377747D01*
X186066534Y-105987889D01*
X183774085Y-105987889D01*
X184032053Y-105000560D01*
X184492188Y-103396679D01*
X185072492Y-101465758D01*
X185736110Y-99324541D01*
X186446186Y-97089769D01*
X187165863Y-94878185D01*
X187858286Y-92806532D01*
X188486597Y-90991552D01*
X189013942Y-89549987D01*
X189213473Y-89041930D01*
X189785260Y-87182678D01*
X190148798Y-84873230D01*
X190262790Y-83488533D01*
X190805631Y-78890809D01*
X191817684Y-74724939D01*
X193175261Y-71278882D01*
X194770457Y-68632909D01*
X196906115Y-66053253D01*
X199414214Y-63706148D01*
X202126735Y-61757822D01*
X203653521Y-60912194D01*
X206608214Y-59612510D01*
X209505293Y-58689884D01*
X212571705Y-58090273D01*
X216034397Y-57759635D01*
X217110659Y-57707706D01*
X220240746Y-57658197D01*
X222905551Y-57801242D01*
G37*
%TD*%
M02*
